<?xml version="1.0" standalone="no"?>
<!DOCTYPE svg PUBLIC "-//W3C//DTD SVG 20010904//EN"
 "http://www.w3.org/TR/2001/REC-SVG-20010904/DTD/svg10.dtd">
<svg version="1.0" xmlns="http://www.w3.org/2000/svg"
 width="1024.000000pt" height="1024.000000pt" viewBox="0 0 1024.000000 1024.000000"
 preserveAspectRatio="xMidYMid meet">
<metadata>
Created by potrace 1.14, written by Peter Selinger 2001-2017
</metadata>
<g transform="translate(0.000000,1024.000000) scale(0.100000,-0.100000)"
fill="#000000" stroke="none">
<path d="M0 8318 c0 -1057 4 -1918 8 -1913 5 6 18 22 29 37 11 15 58 68 104
118 84 92 132 130 168 133 17 1 18 4 8 17 -8 10 -11 48 -9 120 2 58 4 126 5
153 1 26 4 47 8 47 3 0 9 39 13 88 4 48 13 123 21 167 15 82 45 292 50 355 2
19 8 48 14 63 6 16 11 40 11 55 0 15 6 38 13 52 28 54 46 119 57 203 10 72 15
87 29 85 9 -2 21 -10 28 -18 11 -13 12 -12 13 5 1 17 2 18 10 4 6 -11 -1 -65
-21 -165 -34 -163 -40 -198 -64 -354 -9 -58 -19 -112 -22 -120 -3 -8 -8 -44
-10 -80 -3 -35 -9 -72 -14 -81 -5 -9 -13 -59 -19 -110 -10 -90 -13 -108 -26
-181 -12 -70 -21 -233 -14 -242 5 -5 6 -14 4 -20 -3 -8 26 -28 71 -49 70 -35
75 -39 64 -58 -6 -12 -14 -17 -18 -12 -7 12 -72 53 -83 53 -5 0 -8 -13 -8 -29
0 -24 6 -30 43 -44 23 -8 55 -18 71 -22 17 -3 36 -14 44 -23 9 -12 15 -13 18
-5 4 8 14 9 35 3 34 -10 62 -3 56 14 -3 7 6 11 22 10 24 -1 27 -5 23 -34 -1
-5 -10 -7 -19 -3 -12 4 -15 3 -8 -4 13 -14 115 -33 115 -22 0 5 -7 9 -16 9 -9
0 -12 5 -8 11 5 8 -1 10 -19 5 -26 -6 -46 7 -27 19 5 3 10 1 10 -5 0 -8 6 -8
21 0 18 10 40 9 124 -6 22 -4 76 -64 69 -76 -3 -5 0 -8 5 -8 6 0 11 -4 11 -10
0 -5 -7 -6 -17 -3 -12 5 -14 3 -8 -7 16 -25 5 -123 -20 -172 -27 -56 -27 -148
1 -179 15 -17 25 -58 28 -121 0 -16 4 -28 7 -28 6 0 6 0 13 -85 12 -143 18
-192 26 -220 5 -16 9 -59 9 -95 -1 -88 6 -174 16 -189 4 -7 8 -122 9 -255 1
-133 5 -247 9 -253 12 -19 10 -157 -2 -201 -7 -23 -11 -61 -10 -85 1 -23 0
-49 -2 -57 -3 -9 5 -16 19 -18 26 -4 27 -8 7 -45 -8 -15 -12 -34 -9 -41 3 -7
-2 -16 -10 -19 -9 -4 -16 -14 -16 -22 0 -9 -7 -23 -15 -31 -13 -14 -15 -11
-15 25 0 22 -4 42 -10 46 -5 3 -6 13 -3 23 3 9 3 14 -1 10 -12 -10 -14 -42 -4
-60 6 -12 5 -18 -2 -18 -6 0 -9 -3 -7 -7 3 -5 0 -17 -4 -28 -9 -19 -9 -19 -5
2 2 12 -1 24 -8 26 -8 3 -10 -17 -8 -70 2 -56 -1 -75 -12 -79 -9 -3 -12 -13
-8 -27 6 -22 6 -22 14 3 5 15 6 -2 3 -43 -2 -37 -1 -65 4 -63 4 3 13 -5 19
-19 8 -18 8 -25 -1 -29 -7 -2 -4 -5 6 -5 10 -1 16 -5 12 -10 -3 -5 5 -11 17
-13 14 -2 23 -9 22 -20 -1 -12 5 -15 22 -12 12 2 25 0 29 -6 4 -6 -1 -7 -11
-3 -14 5 -16 3 -9 -13 4 -10 8 -35 9 -56 0 -20 3 -35 6 -33 3 2 12 0 20 -6 13
-7 13 -9 0 -9 -12 -1 -11 -3 3 -11 12 -7 16 -17 12 -30 -8 -25 11 -50 32 -42
11 4 14 2 11 -8 -3 -8 -11 -13 -19 -12 -15 3 -17 -38 -4 -69 9 -22 32 -24 32
-3 0 8 -4 15 -9 15 -4 0 -8 12 -8 26 0 40 32 27 45 -19 6 -21 16 -42 23 -46
13 -8 53 -141 46 -152 -2 -4 0 -10 5 -14 6 -3 8 -12 4 -20 -3 -8 0 -15 6 -15
6 0 11 -8 11 -18 0 -10 5 -23 12 -30 7 -7 9 -12 5 -12 -4 0 -3 -9 3 -20 8 -14
8 -20 0 -20 -14 0 9 -24 30 -33 10 -4 11 -6 2 -6 -8 -1 -6 -9 8 -23 12 -13 16
-24 11 -26 -5 -2 -8 -9 -5 -17 3 -7 1 -16 -5 -20 -20 -12 -11 -34 19 -50 29
-15 30 -19 27 -66 -3 -31 0 -52 7 -57 7 -4 24 -23 40 -44 19 -25 24 -38 15
-43 -8 -6 -7 -10 4 -17 10 -5 14 -15 10 -26 -3 -9 -2 -13 2 -9 5 4 22 -20 37
-53 16 -33 32 -60 37 -60 5 0 14 -14 20 -31 7 -19 15 -28 22 -23 7 4 9 3 5 -4
-3 -6 1 -17 9 -25 8 -9 16 -26 17 -38 4 -28 64 -93 78 -84 5 3 10 0 10 -8 0
-8 7 -20 15 -27 8 -7 15 -26 15 -42 0 -21 12 -42 39 -72 22 -22 61 -64 87 -93
26 -29 52 -49 57 -46 6 3 8 2 4 -3 -3 -5 0 -16 6 -25 15 -19 87 -73 87 -65 0
4 21 -5 47 -19 25 -15 58 -28 72 -30 14 -2 45 -11 69 -20 23 -10 51 -15 62
-12 11 3 20 2 20 -2 0 -13 118 -7 130 5 9 9 2 15 -27 24 -21 6 -52 18 -70 26
-17 8 -33 14 -36 14 -2 0 -31 12 -63 26 -33 14 -60 24 -61 22 0 -1 -16 13 -35
32 -18 19 -36 34 -40 32 -5 -1 -8 3 -8 9 0 6 -11 25 -25 44 -14 18 -24 38 -23
45 2 7 -19 24 -46 39 -41 23 -54 38 -87 101 -22 41 -48 82 -59 92 -11 9 -20
21 -20 27 0 18 65 6 88 -17 12 -12 27 -23 32 -23 6 -1 15 -3 20 -4 6 -1 15 -3
22 -4 9 -1 9 -4 0 -13 -18 -18 -15 -38 6 -38 10 0 46 -25 80 -55 61 -55 82
-64 192 -81 19 -3 41 -7 49 -10 7 -2 20 1 27 7 9 7 14 8 14 1 0 -5 7 -13 16
-16 12 -4 15 -2 11 9 -4 8 -2 17 3 20 6 4 10 1 10 -5 0 -7 8 -9 19 -5 13 4 24
-1 35 -17 9 -12 16 -17 16 -10 0 6 9 12 20 12 11 0 20 -4 20 -10 0 -5 12 -13
28 -16 15 -4 29 -10 32 -13 3 -3 19 -14 35 -23 17 -10 29 -22 27 -28 -1 -5 5
-10 13 -10 8 0 15 8 15 18 1 15 2 15 16 -3 13 -18 13 -20 -3 -26 -12 -4 -2 -9
30 -14 33 -5 52 -3 63 6 12 10 15 10 12 -2 -2 -10 7 -14 29 -15 18 0 43 -5 55
-11 23 -11 52 -21 66 -24 4 0 12 -4 17 -9 17 -13 124 -29 208 -31 11 0 15 -5
10 -12 -4 -8 -1 -8 9 1 12 9 18 10 23 2 5 -8 11 -8 19 -1 9 7 19 6 33 -4 16
-12 22 -12 26 -2 3 9 7 9 20 -2 14 -11 15 -17 6 -28 -10 -11 -8 -12 14 -4 16
6 29 7 32 1 3 -5 13 -6 22 -3 12 5 14 3 8 -8 -7 -11 -6 -12 7 -2 8 7 18 10 21
6 4 -3 7 -3 7 2 0 4 -8 14 -17 22 -16 13 -12 14 32 9 73 -7 89 -10 95 -17 10
-13 50 -20 50 -10 0 6 5 11 11 11 5 0 7 -4 4 -10 -4 -6 6 -10 23 -10 18 0 32
-6 36 -16 5 -13 9 -14 21 -4 8 7 15 9 15 4 0 -5 5 -2 10 6 8 13 11 13 27 -3
11 -11 13 -17 5 -17 -8 0 -10 -5 -5 -12 4 -7 8 -19 8 -27 0 -8 7 -16 15 -18
13 -4 13 -3 0 6 -13 9 -13 11 0 11 9 0 21 -5 27 -11 7 -7 20 -8 34 -3 13 4 38
7 54 7 17 0 33 4 36 10 4 5 14 5 26 -1 12 -7 25 -7 34 -1 7 5 28 8 46 7 17 -1
37 3 45 10 15 12 226 11 247 -2 6 -4 11 -3 11 3 0 6 29 8 73 6 306 -15 373
-24 363 -51 -3 -8 1 -14 9 -14 8 0 15 7 15 15 0 8 3 15 8 16 66 5 151 10 209
12 39 2 78 9 87 16 11 9 25 10 53 2 41 -11 284 -7 303 4 6 4 57 7 113 7 56 0
107 4 114 10 6 5 13 5 16 1 6 -10 258 -9 397 2 58 4 130 9 160 11 30 1 66 5
80 7 86 17 214 37 258 41 46 4 50 13 5 14 -59 0 -60 1 -66 21 -8 30 6 41 61
48 29 3 52 9 52 12 0 4 10 7 23 7 38 0 77 15 70 28 -4 8 -2 7 7 -1 12 -11 40
-3 60 17 11 11 52 11 46 1 -4 -6 -1 -11 7 -11 11 0 13 7 9 22 -3 14 -1 19 6
14 6 -3 14 -1 17 5 4 5 13 8 21 5 7 -3 18 4 24 14 8 15 18 19 45 15 21 -2 35
0 35 7 0 5 7 8 15 4 8 -3 15 0 15 6 0 6 3 9 6 5 3 -3 17 -2 31 4 13 5 42 11
65 14 22 3 44 8 49 11 20 12 62 14 75 3 8 -6 14 -8 14 -4 0 4 7 2 15 -5 10 -9
15 -9 15 -1 0 10 -13 15 -32 12 -5 0 -8 3 -8 8 0 13 93 7 98 -7 2 -6 -8 -17
-22 -23 -14 -7 -26 -16 -26 -22 0 -5 -7 -6 -16 -3 -8 3 -12 2 -9 -4 6 -10 -13
-13 -68 -12 -15 0 -25 -3 -22 -8 3 -5 1 -11 -5 -15 -5 -3 -10 -1 -10 4 0 6 -8
3 -19 -8 -10 -10 -40 -22 -67 -26 -27 -4 -55 -12 -61 -17 -7 -6 -13 -7 -13 -4
0 4 -9 2 -20 -4 -11 -6 -33 -13 -48 -15 -57 -9 -66 -12 -70 -24 -4 -13 40 -9
103 10 17 4 73 18 125 29 52 12 104 25 115 29 11 5 47 17 80 27 33 11 62 21
65 24 7 7 35 10 190 18 115 6 143 5 189 -10 60 -20 85 -23 76 -9 -8 13 32 24
82 22 22 0 103 -21 180 -46 76 -25 158 -47 183 -50 25 -2 110 -12 190 -24 182
-25 266 -31 280 -17 7 7 10 6 10 -2 0 -8 17 -12 48 -12 26 0 97 -9 157 -20
152 -28 157 -29 150 -40 -3 -6 -1 -10 6 -10 7 0 6 -8 -5 -25 -17 -26 -21 -46
-8 -44 4 1 12 0 17 -1 6 -2 34 -4 64 -4 57 -1 78 -18 39 -31 -13 -4 -26 -7
-30 -6 -5 1 -8 -13 -8 -30 0 -17 -4 -28 -10 -24 -5 3 -10 2 -10 -3 0 -5 -10
-8 -22 -7 -13 1 -33 -5 -46 -13 -21 -14 -23 -13 -29 6 -5 22 -37 30 -48 13 -3
-6 -13 -9 -23 -9 -9 0 -36 -2 -59 -6 -25 -4 -44 -3 -48 4 -3 5 -19 8 -34 5
-15 -2 -53 -7 -85 -9 -31 -3 -104 -12 -162 -21 -108 -17 -147 -15 -75 5 76 20
60 33 -35 25 -49 -4 -96 -7 -104 -6 -129 4 -230 -3 -230 -18 0 -4 13 -6 30 -5
16 1 27 -2 24 -7 -7 -12 -64 -11 -64 1 0 6 -5 10 -11 10 -5 0 -8 -4 -5 -8 3
-5 -8 -6 -25 -4 -18 3 -29 0 -29 -7 0 -7 -4 -10 -9 -7 -5 4 -22 0 -38 -8 -30
-15 -49 -20 -250 -66 -88 -21 -164 -32 -230 -33 -84 -3 -106 -7 -153 -30 -49
-25 -71 -29 -205 -36 -188 -11 -360 -7 -379 8 -10 8 -33 9 -82 2 -49 -7 -90
-6 -141 3 -49 9 -186 13 -420 14 -314 0 -402 -5 -510 -27 -2 -1 -3 -8 -3 -16
0 -8 -4 -15 -10 -15 -5 0 -10 10 -10 23 0 17 -2 19 -9 8 -10 -15 -69 -20 -89
-7 -7 4 -12 3 -12 -3 0 -6 -7 -8 -16 -4 -9 3 -20 0 -25 -8 -6 -10 -9 -10 -9
-1 0 17 -35 15 -50 -3 -7 -8 -18 -15 -24 -15 -6 0 -4 5 4 10 12 7 7 12 -22 25
-42 17 -68 19 -68 6 0 -5 -24 -12 -52 -16 -29 -4 -59 -15 -66 -24 -7 -9 -11
-10 -7 -3 3 6 1 12 -4 12 -6 0 -11 -6 -11 -12 0 -9 -3 -9 -8 -2 -13 19 -308 2
-296 -18 3 -5 12 -7 20 -4 8 3 11 0 7 -10 -5 -13 -9 -11 -29 7 -12 11 -26 19
-31 16 -4 -3 -39 -8 -78 -11 -38 -4 -86 -9 -105 -12 -19 -3 -44 -7 -55 -7 -11
-1 -23 -6 -26 -10 -8 -10 -158 -29 -170 -21 -5 3 -9 2 -9 -3 0 -4 -14 -8 -30
-9 -19 -1 -30 4 -30 12 0 8 -8 14 -17 14 -15 0 -16 -2 -3 -10 8 -5 12 -10 9
-10 -4 0 -28 -4 -55 -9 -27 -5 -83 -12 -125 -16 -42 -3 -100 -8 -130 -11 -30
-2 -81 -7 -114 -10 -33 -3 -75 -5 -92 -6 -18 -1 -33 -5 -33 -8 0 -4 -21 -6
-47 -5 -29 1 -47 7 -46 13 3 13 -36 26 -63 20 -17 -3 -17 -4 0 -20 10 -10 16
-18 14 -19 -26 -6 -38 -6 -38 2 0 13 -37 11 -46 -2 -3 -6 -18 -8 -33 -5 -19 5
-22 4 -11 -4 11 -7 -17 -10 -92 -10 -60 0 -108 -4 -108 -9 0 -5 -11 -12 -24
-15 -13 -3 -26 -15 -29 -27 -4 -15 -11 -20 -22 -15 -9 3 -22 3 -28 -1 -19 -12
-38 -12 -65 -2 -23 9 -24 8 -11 -7 13 -16 12 -16 -6 -7 -11 5 -27 9 -35 8 -8
-1 -23 -3 -33 -3 -11 -1 -15 -7 -11 -14 5 -7 3 -8 -7 -2 -15 9 -57 7 -74 -4
-5 -4 -21 -7 -35 -8 -41 -2 -233 -16 -260 -19 -14 -1 -33 2 -42 7 -9 4 -51 11
-93 13 -60 4 -75 3 -69 -7 6 -9 3 -9 -9 1 -10 8 -17 9 -17 3 0 -6 -8 -10 -17
-10 -10 0 -27 -3 -37 -7 -11 -5 -17 -5 -14 1 4 5 -46 10 -120 10 -70 1 -147 4
-172 8 -25 3 -67 8 -95 10 -46 4 -113 27 -177 62 -14 7 -42 14 -62 14 l-37 0
21 -22 c11 -12 18 -23 16 -25 -3 -4 -93 18 -201 48 -111 32 -291 125 -358 186
-32 30 -74 60 -93 68 -19 8 -34 19 -34 24 0 6 -21 33 -47 60 -95 98 -195 210
-249 277 -54 68 -214 324 -214 344 0 5 -4 10 -9 10 -5 0 -13 15 -16 32 -4 18
-16 53 -27 78 -11 25 -27 61 -36 80 -8 19 -28 62 -44 95 -39 81 -76 200 -99
319 -10 54 -26 110 -35 124 -22 34 -52 245 -62 427 -7 154 -9 508 -5 1165 3
469 -2 747 -16 782 -9 24 -7 27 21 37 17 6 32 11 33 11 1 0 11 -29 21 -65 10
-35 27 -75 36 -87 l18 -23 0 22 c0 12 -9 44 -19 71 -22 55 -15 78 19 67 12 -4
34 -9 48 -11 47 -8 56 -10 100 -24 23 -7 42 -17 42 -21 0 -4 21 -6 47 -4 26 2
52 0 58 -4 5 -5 23 -11 40 -15 16 -4 32 -11 35 -16 3 -5 14 -2 25 6 16 12 17
17 7 23 -10 6 -7 10 12 15 14 3 29 7 33 7 8 0 33 -102 27 -112 -2 -3 8 -12 22
-19 18 -10 21 -16 12 -22 -9 -6 -7 -10 9 -14 13 -4 20 -10 18 -15 -3 -4 7 -28
22 -51 15 -24 26 -49 24 -57 -3 -17 19 -63 36 -74 7 -4 13 -13 13 -18 0 -6 -4
-7 -10 -4 -13 8 -13 -7 1 -42 27 -71 45 -210 49 -368 0 -17 2 -17 10 -5 11 17
12 3 11 -132 0 -49 3 -88 8 -88 17 0 34 114 33 225 -2 161 -11 312 -22 375 -6
30 -15 84 -20 119 -12 75 -20 92 -31 65 -6 -14 -8 -15 -8 -3 -1 9 -10 24 -21
34 -11 10 -20 26 -20 35 0 10 -9 29 -21 44 -11 15 -22 32 -23 39 -7 39 -18 58
-30 48 -9 -7 -12 -3 -14 17 l-1 27 28 -32 c15 -18 32 -33 37 -33 5 0 15 -9 22
-20 12 -19 14 -19 29 -5 13 13 18 14 24 3 12 -18 2 125 -12 182 -6 25 -16 56
-22 70 -13 29 -63 80 -71 72 -3 -3 -6 0 -6 5 0 6 -8 10 -17 8 -10 -2 -22 -4
-27 -4 -4 -1 -6 -7 -3 -14 3 -8 -12 -4 -42 10 -31 16 -54 22 -71 17 -28 -7
-25 -7 -103 0 -33 3 -65 10 -72 16 -16 14 -154 17 -164 4 -7 -10 -61 -13 -61
-4 0 4 -14 5 -30 2 -18 -3 -30 0 -30 7 0 15 -27 14 -33 -1 -4 -9 -8 -9 -14 -3
-12 15 -33 16 -27 2 3 -8 -6 -18 -20 -25 -22 -10 -29 -7 -63 24 -79 73 -73 97
-73 -285 0 -262 3 -341 13 -345 10 -5 10 -7 0 -12 -10 -4 -13 -539 -13 -2625
l0 -2619 4720 0 4720 0 0 80 0 80 320 0 320 0 0 -80 0 -80 80 0 80 0 0 1642 0
1642 -25 -50 c-16 -32 -53 -76 -102 -120 -94 -85 -111 -95 -160 -92 -21 1 -72
-1 -113 -5 -41 -4 -140 -10 -219 -12 -148 -4 -176 1 -222 41 -10 9 -33 12 -69
10 -71 -5 -110 9 -107 37 2 25 25 53 34 43 4 -3 14 1 24 10 12 11 35 16 64 16
25 -1 45 3 45 8 0 5 11 7 25 4 63 -11 94 -11 155 1 36 7 74 16 85 21 18 8 17
9 -10 14 l-30 6 40 18 c22 10 69 23 105 30 86 17 174 59 227 108 24 23 73 116
73 141 0 9 16 33 35 54 19 21 47 60 61 87 29 56 65 109 76 114 5 2 8 1047 8
2323 l0 2320 -197 -7 c-109 -4 -209 -7 -223 -7 -14 0 -94 1 -178 2 -106 1
-151 4 -147 12 4 6 9 8 12 5 3 -3 13 -1 22 3 28 15 242 26 618 32 50 1 61 4
56 16 -5 12 -1 14 15 8 l22 -6 0 606 c0 598 0 607 -20 612 -11 3 -20 9 -20 14
0 5 -12 14 -27 20 -15 6 -44 20 -63 32 -31 20 -87 44 -115 50 -5 2 -16 6 -23
11 -8 5 -34 10 -59 11 -28 2 -57 12 -77 26 -17 13 -41 22 -53 21 -12 -2 -33 4
-47 13 -14 9 -35 18 -48 20 -38 4 -53 9 -60 20 -5 6 -8 5 -8 -4 0 -11 -3 -11
-15 -1 -8 7 -21 10 -28 7 -7 -3 -21 1 -32 9 -10 7 -28 11 -41 8 -16 -4 -23 -1
-26 12 -1 9 -12 19 -23 20 -11 1 -38 7 -60 13 -27 7 -43 7 -52 0 -7 -6 -25 -8
-40 -5 -15 3 -80 8 -144 11 l-116 6 0 -40 c0 -22 4 -38 9 -35 4 3 8 0 8 -5 0
-6 -6 -11 -14 -11 -8 0 -21 -9 -29 -21 l-15 -20 -21 23 c-24 25 -32 27 -126
32 -33 2 -66 5 -74 7 -8 2 -24 -10 -35 -28 -18 -28 -50 -46 -44 -25 5 18 -14
82 -23 77 -5 -4 -9 -1 -9 4 0 6 7 11 15 11 8 0 15 5 15 10 0 6 -24 11 -52 12
-29 1 -73 3 -98 4 -29 1 -51 -3 -63 -14 -9 -8 -20 -12 -24 -9 -3 4 -1 7 5 7 7
0 12 5 12 10 0 7 -6 7 -20 0 -12 -6 -17 -16 -13 -26 5 -14 3 -15 -18 -3 -14 7
-19 14 -11 17 6 2 12 8 12 14 0 7 -5 6 -14 -1 -8 -6 -28 -13 -45 -14 -17 -1
-31 -6 -31 -10 0 -12 -34 -4 -46 12 -12 15 -137 17 -142 2 -2 -6 -10 -7 -18
-4 -8 3 -14 0 -14 -7 0 -8 -10 -9 -30 -5 -25 5 -30 3 -30 -12 -1 -17 -2 -17
-13 -1 -8 9 -20 15 -28 14 -27 -5 -67 -25 -74 -36 -3 -5 -10 -8 -14 -5 -5 2
-11 -8 -14 -23 -5 -22 -11 -27 -38 -28 -21 -1 -39 -10 -51 -25 -11 -13 -17
-18 -13 -11 3 6 1 12 -5 12 -6 0 -15 -11 -22 -25 -6 -13 -16 -22 -21 -18 -6 4
-8 0 -4 -10 5 -12 -1 -19 -18 -23 -13 -3 -27 -13 -30 -22 -5 -17 -48 -42 -71
-42 -14 0 -44 -43 -44 -64 0 -8 6 -17 13 -19 6 -3 2 -6 -10 -6 -20 -1 -63 -43
-63 -63 0 -5 -9 -18 -19 -29 -11 -12 -22 -33 -26 -47 -3 -15 -14 -45 -24 -67
-43 -95 -49 -113 -56 -165 -10 -68 -14 -281 -6 -295 7 -13 12 -45 7 -45 -18 0
-36 36 -31 60 4 19 1 33 -10 44 -10 10 -12 16 -4 16 8 0 9 3 0 14 -6 7 -12 25
-13 40 -1 14 -8 26 -14 26 -7 0 -14 6 -17 13 -6 18 -26 -59 -20 -81 3 -12 -2
-22 -11 -25 -14 -6 -15 5 -12 86 6 124 47 352 73 402 13 25 33 83 39 113 2 12
13 37 24 55 11 17 20 40 20 49 0 9 6 21 14 25 14 8 76 96 76 108 0 4 -7 4 -16
1 -8 -3 -12 -2 -9 4 3 5 0 18 -7 29 -7 11 -10 23 -6 26 5 6 93 41 200 81 44
16 79 9 52 -11 -9 -6 -13 -14 -8 -17 13 -8 54 9 54 22 0 6 5 8 12 4 7 -4 8 -3
4 4 -4 7 -14 12 -22 12 -29 0 -13 19 21 26 19 3 35 10 35 15 0 5 10 9 23 9 13
0 27 4 33 9 13 12 109 41 136 41 13 0 36 7 52 15 15 8 37 15 48 15 10 0 17 4
13 9 -3 5 0 13 6 17 8 4 9 3 5 -4 -5 -8 1 -12 14 -12 12 0 18 5 15 10 -3 6 1
10 10 10 9 0 13 5 10 10 -8 13 -51 13 -75 0 -17 -9 -18 -8 -13 7 6 16 5 17
-12 3 -15 -12 -17 -12 -10 -1 6 11 4 13 -8 8 -8 -3 -21 1 -27 9 -14 16 -66 19
-75 4 -3 -5 -11 -10 -16 -10 -6 0 -8 4 -4 9 11 20 -17 22 -35 4 -10 -11 -28
-19 -41 -17 -13 1 -29 3 -35 3 -6 1 -21 10 -34 21 -23 20 -42 20 -3921 20
l-3899 0 0 -1922z m7800 1908 c0 -3 -4 -8 -10 -11 -5 -3 -10 -1 -10 4 0 6 5
11 10 11 6 0 10 -2 10 -4z m-30 -16 c0 -5 -10 -15 -22 -21 l-23 -12 20 21 c23
24 25 25 25 12z m270 -12 c0 -4 -4 -8 -9 -8 -6 0 -12 4 -15 8 -3 5 1 9 9 9 8
0 15 -4 15 -9z m-146 -37 c4 -5 -3 -7 -14 -4 -23 6 -26 13 -6 13 8 0 17 -4 20
-9z m116 -25 c0 -3 -4 -8 -10 -11 -5 -3 -10 -1 -10 4 0 6 5 11 10 11 6 0 10
-2 10 -4z m187 -176 c4 -15 11 -19 27 -15 19 5 19 5 3 -5 -20 -13 -32 -7 -47
21 -8 13 -7 19 1 19 6 0 13 -9 16 -20z m923 -6 c0 -12 -2 -12 -14 -2 -8 7 -12
16 -9 21 7 11 23 -2 23 -19z m105 6 c3 0 3 6 -1 13 -5 8 -2 8 9 -2 20 -16 23
-51 5 -51 -13 0 -58 42 -58 54 0 4 9 2 19 -4 11 -5 22 -10 26 -10z m96 3 c7
-47 7 -63 -3 -57 -6 4 -6 -2 1 -15 10 -17 9 -22 -4 -28 -10 -3 -24 2 -33 12
-9 10 -11 15 -4 11 8 -5 12 2 13 23 1 17 3 36 4 41 1 6 3 12 4 15 2 8 21 6 22
-2z m-1165 -10 c-4 -5 -13 -8 -19 -8 -7 -1 -11 -6 -10 -12 1 -6 -4 -14 -13
-17 -10 -4 -13 -2 -8 7 15 27 27 37 42 37 8 0 12 -3 8 -7z m1014 3 c0 -3 -4
-8 -10 -11 -5 -3 -10 -1 -10 4 0 6 5 11 10 11 6 0 10 -2 10 -4z m-720 -21 c0
-12 -19 -12 -23 0 -4 9 -1 12 9 8 7 -3 14 -7 14 -8z m747 -1 c-3 -3 -12 -4
-19 -1 -8 3 -5 6 6 6 11 1 17 -2 13 -5z m-557 -24 c0 -5 -5 -10 -11 -10 -5 0
-7 5 -4 10 3 6 8 10 11 10 2 0 4 -4 4 -10z m-380 -17 c0 5 5 5 12 1 7 -5 27
-8 45 -7 37 0 45 -16 12 -24 -15 -4 -17 -8 -8 -14 9 -5 5 -11 -14 -20 -39 -18
-34 -54 8 -54 23 0 31 -5 33 -22 3 -23 -12 -31 -23 -13 -10 16 -28 12 -21 -5
3 -9 0 -15 -10 -15 -8 0 -13 -4 -10 -9 3 -4 -6 -13 -19 -19 -14 -7 -26 -18
-26 -27 -1 -8 -3 -19 -4 -25 -1 -5 -3 -14 -4 -20 0 -5 -8 -10 -17 -10 -8 0
-13 -4 -10 -8 2 -4 -4 -13 -15 -20 -13 -9 -18 -9 -17 -1 2 6 -5 13 -14 14 -10
2 -18 -2 -18 -8 0 -7 -5 -5 -10 3 -7 11 -10 11 -10 2 0 -7 -5 -10 -10 -7 -8 5
-7 12 2 23 7 10 0 6 -15 -7 -15 -14 -27 -19 -27 -13 0 7 -6 12 -14 12 -8 0
-16 7 -20 15 -3 8 -11 14 -18 13 -9 -2 -12 11 -11 47 1 28 -1 41 -4 31 -3 -10
-13 -28 -24 -39 -10 -11 -16 -24 -13 -29 3 -5 0 -7 -7 -6 -7 2 -15 -12 -19
-30 -4 -18 -11 -36 -15 -40 -5 -4 -6 0 -3 8 4 11 0 16 -13 16 -11 0 -19 -6
-19 -13 0 -7 -7 -13 -16 -13 -8 0 -13 -4 -9 -9 3 -5 1 -12 -4 -16 -12 -7 -3
45 10 62 6 7 8 16 5 21 -3 5 1 17 8 27 10 14 15 15 21 5 5 -9 4 -11 -3 -6 -7
4 -12 1 -12 -7 0 -10 7 -13 21 -10 12 4 18 11 15 20 -3 8 -2 12 2 9 4 -3 14 4
21 16 10 16 10 19 -1 12 -7 -4 -5 2 5 13 9 11 17 25 17 31 0 24 -30 9 -48 -23
-6 -11 -12 -14 -12 -7 0 8 -5 10 -12 6 -9 -5 -9 -2 1 9 9 11 10 17 2 17 -6 0
-11 7 -11 15 0 8 7 15 15 15 8 0 15 4 15 9 0 5 9 7 20 4 12 -3 20 0 20 6 0 7
-4 9 -10 6 -5 -3 -14 -4 -19 0 -11 6 31 55 48 55 6 0 11 5 11 10 0 6 11 10 24
10 13 0 26 6 28 12 3 9 9 8 21 -4 16 -15 22 -16 64 -3 25 8 51 11 57 8 6 -4 4
2 -4 12 -14 17 -13 18 17 12 19 -4 35 -2 39 4 4 8 9 7 15 -2 5 -8 9 -10 9 -6z
m1355 -35 c5 -4 -4 -8 -21 -8 -30 0 -74 24 -74 40 0 10 77 -16 95 -32z m-1092
18 c7 -16 -51 -109 -63 -101 -4 2 -6 18 -4 34 2 20 -2 33 -13 39 -14 8 -12 12
13 25 36 20 60 21 67 3z m926 -39 c5 -23 6 -46 2 -50 -14 -14 -49 2 -56 24 -4
10 -12 19 -18 19 -20 -1 -47 -26 -47 -44 0 -15 -7 -16 -44 -11 -38 6 -44 4
-49 -13 -7 -29 2 -34 22 -14 9 10 12 12 8 5 -13 -18 -26 -83 -21 -98 3 -7 14
-10 25 -8 11 3 18 11 15 18 -2 7 7 18 20 24 14 6 23 8 21 4 -3 -5 1 -14 9 -21
12 -11 14 -10 14 5 0 13 2 15 9 5 4 -7 12 -12 17 -11 25 4 44 -3 44 -16 0 -9
-10 -15 -22 -16 -13 0 -17 -3 -9 -6 11 -4 11 -7 1 -13 -11 -7 -10 -12 3 -24
11 -12 17 -13 21 -3 3 7 7 3 11 -10 4 -13 11 -23 15 -23 5 0 16 -7 24 -16 15
-14 16 -14 16 0 0 10 9 16 25 16 14 0 28 0 33 0 4 0 7 -4 7 -9 0 -6 6 -16 13
-23 10 -10 15 -10 22 2 5 8 10 20 10 25 0 6 -4 4 -9 -4 -6 -9 -11 -10 -15 -2
-4 6 -4 11 1 12 4 0 19 2 33 5 19 3 21 2 10 -6 -9 -6 -11 -10 -3 -10 7 0 17 9
23 20 6 11 17 20 24 20 8 0 13 8 12 17 0 10 4 18 11 18 6 0 15 4 20 9 5 5 3 6
-4 2 -8 -4 -13 -1 -13 8 0 8 -13 23 -29 32 -30 18 -42 51 -31 89 7 29 30 25
65 -11 17 -18 33 -32 38 -32 20 -1 27 -10 29 -42 2 -26 9 -38 28 -46 l24 -10
-27 -24 c-15 -13 -25 -30 -23 -36 3 -7 0 -14 -5 -16 -13 -4 6 -58 21 -58 6 0
2 -10 -9 -22 -11 -11 -17 -26 -14 -32 4 -6 7 -20 8 -31 0 -12 6 -19 14 -17 8
2 11 -3 8 -13 -4 -8 -1 -15 5 -15 6 0 8 -3 5 -7 -4 -3 -2 -12 4 -20 6 -7 8
-13 5 -13 -4 0 5 -11 20 -25 21 -20 23 -25 10 -25 -10 0 -15 -4 -11 -9 3 -5 1
-12 -5 -16 -5 -3 -10 -1 -10 4 0 6 -7 11 -15 11 -8 0 -15 5 -15 11 0 5 -5 7
-12 3 -7 -5 -9 -2 -6 7 8 22 -13 44 -44 45 -16 1 -28 -1 -28 -5 0 -3 -16 -6
-35 -7 -18 0 -32 2 -30 6 2 3 -1 12 -6 20 -7 12 -10 11 -15 -7 -4 -13 -10 -23
-16 -23 -5 0 -4 -8 2 -19 7 -13 7 -22 0 -26 -5 -3 -10 1 -10 9 0 9 -3 15 -7
15 -31 -5 -34 4 -8 21 l30 20 -26 0 c-18 0 -28 6 -32 20 -3 11 -1 20 4 20 15
0 -14 38 -33 43 -10 3 -25 -1 -33 -10 -8 -8 -19 -12 -24 -8 -6 3 -14 -3 -20
-12 -6 -10 -11 -14 -11 -9 0 11 -30 -14 -30 -25 0 -13 34 -11 49 4 8 7 11 7 8
1 -4 -7 6 -27 23 -45 l29 -34 -21 -22 c-14 -15 -33 -23 -55 -23 -18 0 -34 -4
-34 -10 -1 -5 -2 -14 -3 -18 0 -5 -8 -16 -17 -25 -12 -12 -19 -13 -28 -4 -15
15 -14 -5 2 -23 7 -8 0 -6 -16 4 -16 10 -34 15 -41 13 -14 -6 -48 28 -39 37 3
3 21 -4 40 -15 18 -11 33 -16 33 -10 0 6 -8 11 -17 11 -15 0 -16 2 -3 10 12 7
11 9 -5 10 -11 0 -29 0 -40 1 -54 1 -147 -11 -159 -20 -16 -13 -101 -22 -133
-15 -20 5 -41 52 -35 77 1 4 -5 21 -13 38 -19 36 -52 51 -133 58 -9 1 -10 6
-3 19 5 10 10 37 9 59 0 23 3 47 7 54 5 8 4 10 -3 5 -7 -4 -12 -3 -12 3 0 5 9
13 21 16 16 5 20 13 16 31 -2 13 1 25 7 27 8 3 8 8 0 18 -5 8 -10 21 -9 29 0
8 -9 17 -20 20 -13 4 -21 16 -23 35 -2 17 -9 33 -15 37 -19 11 23 37 60 38 17
0 35 -4 38 -10 16 -26 26 -6 23 48 -3 53 -1 57 20 60 17 3 22 -2 22 -17 0 -12
4 -21 10 -21 5 0 7 -7 4 -15 -7 -18 7 -20 24 -3 7 7 12 8 12 4 0 -5 6 -4 13 2
18 15 78 18 102 5 11 -6 26 -8 34 -5 8 2 11 0 8 -5 -6 -10 34 -10 50 0 9 5 40
-24 35 -33 -2 -2 1 -6 7 -8 7 -2 10 6 7 20 -6 36 12 61 40 55 13 -2 24 0 24 4
0 5 -8 9 -17 10 -15 0 -15 2 2 9 11 5 14 9 7 9 -7 1 -10 6 -7 12 5 7 14 4 26
-7 10 -9 19 -14 19 -10 0 4 8 3 17 -3 20 -11 67 9 76 33 10 27 34 7 46 -37z
m-468 0 c-8 -8 -11 -7 -11 4 0 9 3 19 7 23 4 4 9 2 11 -4 3 -7 -1 -17 -7 -23z
m-7621 8 c0 -15 -35 -39 -61 -41 -24 -2 -12 36 15 46 32 13 46 12 46 -5z
m8525 -53 c-3 -3 -11 0 -18 7 -9 10 -8 11 6 5 10 -3 15 -9 12 -12z m-9220 -13
c12 -18 -1 -20 -31 -4 l-29 15 27 0 c15 0 30 -5 33 -11z m340 -29 c3 -5 2 -10
-4 -10 -5 0 -13 5 -16 10 -3 6 -2 10 4 10 5 0 13 -4 16 -10z m8495 -1 c0 -6
-5 -7 -11 -3 -6 3 -4 -5 5 -18 9 -14 27 -30 41 -36 30 -14 31 -28 6 -65 l-19
-29 -19 21 c-23 25 -60 35 -69 19 -4 -6 -2 -8 4 -4 13 8 26 -10 17 -25 -5 -6
-12 -4 -20 8 -11 15 -11 22 1 46 9 15 14 38 12 50 -2 14 2 21 11 19 8 -2 11 3
8 11 -3 8 3 13 14 14 10 1 19 -3 19 -8z m-8380 -9 c0 -5 -2 -10 -4 -10 -3 0
-8 5 -11 10 -3 6 -1 10 4 10 6 0 11 -4 11 -10z m7510 -20 c0 -21 -4 -28 -14
-24 -21 8 -29 36 -14 46 22 13 28 9 28 -22z m-8506 9 c-4 -8 1 -9 17 -4 23 7
23 6 5 -8 -22 -16 -48 -16 -54 1 -1 5 5 12 15 15 10 3 19 5 21 6 2 0 0 -4 -4
-10z m893 -6 c-10 -9 34 -54 45 -47 5 3 17 -1 26 -9 9 -9 21 -15 27 -14 5 1
11 -6 13 -16 3 -16 1 -17 -16 -8 -11 6 -29 8 -39 5 -15 -5 -15 -4 -3 5 12 8
12 13 2 23 -9 9 -12 9 -12 -2 0 -9 -7 -7 -23 8 l-23 21 -2 -24 c-1 -15 3 -24
10 -22 7 1 14 -6 16 -15 3 -14 -1 -16 -15 -11 -16 6 -17 5 -3 -12 11 -14 6
-13 -20 6 -19 13 -37 25 -39 26 -1 1 0 7 4 13 5 8 11 6 19 -6 12 -16 13 -16
11 2 -1 10 -6 27 -10 37 -8 18 9 47 28 47 6 0 7 -3 4 -7z m6846 -7 c4 -10 1
-13 -8 -9 -8 3 -12 9 -9 14 7 12 11 11 17 -5z m-7622 -20 c33 -6 59 -18 59
-29 0 -8 3 -8 11 0 8 8 19 2 40 -22 16 -18 29 -40 29 -49 0 -10 4 -15 9 -11 5
3 12 -4 16 -15 3 -11 13 -20 21 -20 8 0 14 -8 14 -19 0 -10 9 -25 21 -32 13
-9 21 -27 23 -50 2 -20 6 -41 9 -46 4 -6 -1 -18 -11 -26 -17 -16 -18 -15 -16
13 1 17 -2 27 -7 24 -5 -3 -9 0 -9 6 0 6 -5 8 -10 5 -6 -3 -10 -1 -10 4 0 6
-5 11 -12 11 -6 0 -4 -7 5 -18 10 -10 14 -22 11 -25 -4 -4 -1 -13 6 -22 7 -9
10 -19 6 -22 -4 -4 -11 -1 -16 7 -5 8 -13 11 -17 6 -4 -5 -2 -11 5 -13 6 -3
12 -11 12 -19 0 -9 -4 -12 -10 -9 -5 3 -10 -1 -10 -10 0 -9 -11 -28 -25 -43
l-25 -27 -1 30 c-1 17 -1 35 0 41 1 7 -6 14 -14 18 -9 3 -14 2 -11 -3 3 -5 -1
-12 -10 -15 -10 -4 -13 -13 -9 -27 9 -28 -13 -16 -47 26 -29 35 -39 60 -30 70
4 3 7 14 7 23 0 11 7 16 18 14 12 -2 21 4 24 17 6 24 14 26 32 9 11 -11 13
-10 8 4 -3 10 -1 21 6 25 19 12 48 73 35 73 -6 0 -9 3 -5 6 3 3 1 19 -5 35
-16 45 -62 35 -63 -13 0 -10 -3 -18 -7 -18 -5 0 -12 0 -18 0 -5 0 -14 9 -20
19 -8 17 -7 19 9 16 10 -2 27 6 38 19 19 22 19 22 -4 33 -13 6 -21 7 -18 3 3
-5 -3 -16 -12 -26 -16 -16 -18 -16 -21 -1 -3 12 -8 14 -27 7 -12 -5 -26 -6
-30 -2 -5 4 -5 -3 -2 -16 4 -19 3 -21 -9 -11 -7 6 -11 15 -8 20 3 5 0 9 -6 9
-6 0 -4 7 5 16 9 9 14 23 11 30 -3 8 1 14 10 14 9 0 12 5 8 12 -4 7 -3 8 4 4
7 -4 12 -1 12 6 0 11 2 11 9 0 4 -7 14 -14 22 -16z m8309 4 c0 -11 -4 -20 -10
-20 -5 0 -10 9 -10 20 0 11 5 20 10 20 6 0 10 -9 10 -20z m-7403 2 c7 -4 22
-34 32 -65 l20 -57 -25 0 c-13 0 -24 5 -24 11 0 5 4 8 8 5 5 -3 8 5 7 17 -2
12 -7 21 -12 20 -5 -1 -9 13 -9 30 1 21 -4 31 -11 30 -7 -2 -13 2 -13 7 0 12
10 13 27 2z m6687 -12 c-22 -9 -29 -6 -20 9 4 6 14 7 23 4 15 -6 14 -7 -3 -13z
m896 -19 c0 -11 -3 -11 -14 -1 -8 6 -12 18 -9 27 5 12 7 12 14 1 5 -7 9 -19 9
-27z m-1080 26 c0 -2 -10 -12 -21 -23 -22 -19 -22 -19 -8 4 12 19 29 30 29 19z
m710 -19 c0 -16 -3 -19 -11 -11 -6 6 -8 16 -5 22 11 17 16 13 16 -11z m-7245
-6 c-3 -3 -11 0 -18 7 -9 10 -8 11 6 5 10 -3 15 -9 12 -12z m8782 -34 c-3 -8
-6 -5 -6 6 -1 11 2 17 5 13 3 -3 4 -12 1 -19z m-8809 -37 c-8 -12 -18 -18 -23
-13 -4 4 -5 -1 -2 -10 4 -12 2 -15 -9 -11 -10 4 -12 9 -5 16 5 5 8 15 7 21 -2
6 -1 8 1 4 3 -4 12 -1 20 8 21 21 28 10 11 -15z m57 -21 c-1 -16 2 -30 7 -30
4 0 8 5 8 10 0 6 5 10 12 10 7 0 6 -6 -4 -17 -9 -10 -18 -25 -21 -33 -4 -10
-6 -7 -6 8 -1 12 -5 22 -9 22 -4 0 -7 12 -6 28 2 32 2 32 12 32 5 0 8 -13 7
-30z m8845 -15 c0 -7 9 -20 21 -28 34 -24 3 -30 -45 -8 -33 14 -44 24 -41 38
2 10 4 24 4 31 1 18 61 -14 61 -33z m-1306 12 c-1 -9 5 -17 13 -17 10 0 13 -6
9 -16 -3 -8 -2 -12 4 -9 6 3 9 -5 8 -19 -2 -20 -5 -23 -20 -15 -10 6 -19 5
-23 -1 -3 -5 1 -10 9 -10 20 0 21 -19 1 -26 -8 -4 -15 -12 -15 -20 0 -17 -12
-18 -29 -1 -11 10 -13 9 -7 -3 4 -8 -2 -4 -13 10 -35 41 -36 44 -39 75 -2 26
3 34 35 53 43 25 69 24 67 -1z m-8465 -8 c-7 -4 -17 -5 -22 -2 -5 3 -3 9 4 14
7 4 17 5 22 2 5 -3 3 -9 -4 -14z m896 11 c3 -5 1 -10 -4 -10 -6 0 -11 5 -11
10 0 6 2 10 4 10 3 0 8 -4 11 -10z m6693 -15 c-3 -3 -9 2 -12 12 -6 14 -5 15
5 6 7 -7 10 -15 7 -18z m149 -34 c-1 -12 -6 -17 -17 -13 -8 3 -12 2 -8 -2 8
-10 -14 -36 -24 -29 -5 2 -8 -2 -8 -10 0 -8 -9 -26 -20 -40 -11 -14 -20 -36
-20 -50 0 -15 -7 -27 -17 -31 -10 -3 -26 -10 -35 -16 -10 -5 -26 -14 -35 -19
-10 -4 -21 -21 -24 -37 -5 -26 -7 -27 -14 -10 -5 11 -17 28 -27 38 -18 18 -16
44 3 33 5 -4 9 1 9 10 0 19 20 55 40 73 11 10 11 12 1 6 -9 -4 -12 -3 -7 4 4
6 14 8 22 5 13 -5 15 -1 10 18 -3 13 -3 19 0 13 6 -14 43 -6 62 13 7 7 24 13
37 13 13 0 29 10 39 25 20 30 35 33 33 6z m-7707 -2 c0 -8 5 -7 15 1 13 11 14
10 9 -4 -8 -20 -18 -20 -34 -1 -9 10 -9 15 -1 15 6 0 11 -5 11 -11z m7574 -8
c3 -5 -1 -11 -9 -14 -9 -4 -12 -1 -8 9 6 16 10 17 17 5z m2061 -8 c3 -10 -1
-13 -12 -11 -9 2 -18 8 -20 14 -5 16 25 13 32 -3z m-8745 -16 c0 -1 -11 -2
-24 -2 -14 0 -22 5 -19 12 4 9 10 10 24 2 10 -5 19 -11 19 -12z m-166 -2 c-4
-8 -13 -15 -21 -15 -13 0 -13 3 -3 15 7 8 16 15 21 15 5 0 6 -7 3 -15z m6921
-75 c3 -5 -1 -10 -10 -10 -9 0 -13 5 -10 10 3 6 8 10 10 10 2 0 7 -4 10 -10z
m761 -35 c-3 -8 -1 -15 3 -15 5 0 11 5 13 11 2 6 12 0 23 -13 15 -17 16 -19 3
-9 -10 7 -18 9 -18 4 0 -6 -11 -8 -24 -6 -22 4 -23 8 -13 24 14 23 21 25 13 4z
m847 -11 c-7 -19 -10 -18 -16 5 -3 13 -1 18 9 14 7 -2 10 -11 7 -19z m-723
-44 c-13 -8 -12 -10 4 -10 16 0 15 -3 -7 -20 -19 -15 -31 -18 -49 -11 -23 8
-23 9 12 30 34 20 70 31 40 11z m-8 -67 c-8 -3 -10 -9 -4 -16 5 -7 6 -21 1
-32 -6 -17 -8 -17 -8 -2 -1 9 -5 17 -10 17 -5 0 -7 -10 -4 -22 4 -21 3 -22
-10 -5 -8 10 -29 17 -48 18 -41 1 -77 13 -63 22 5 3 36 7 68 9 32 2 60 6 63
10 2 5 10 8 16 7 8 0 8 -2 -1 -6z m-202 -28 c10 -12 10 -15 -1 -15 -11 0 -11
-2 1 -10 9 -6 10 -10 3 -10 -6 0 -15 5 -18 11 -4 6 -13 8 -20 5 -19 -7 -27 5
-14 21 15 17 34 17 49 -2z m1299 -5 c1 13 2 13 11 0 13 -19 13 -40 0 -40 -5 0
-6 7 -3 17 4 11 3 14 -5 9 -17 -11 -32 2 -25 21 6 15 7 14 14 -3 5 -13 8 -14
8 -4z m-962 -10 c2 -18 0 -18 -13 -6 -17 18 -18 26 -1 26 7 0 13 -9 14 -20z
m703 -6 c0 -2 -11 -4 -25 -4 -14 0 -25 4 -25 9 0 4 11 6 25 3 14 -2 25 -6 25
-8z m-1204 -61 c-10 -10 -19 5 -10 18 6 11 8 11 12 0 2 -7 1 -15 -2 -18z m699
7 c3 -5 1 -10 -4 -10 -6 0 -11 5 -11 10 0 6 2 10 4 10 3 0 8 -4 11 -10z m480
-115 c-1 -38 -44 -87 -87 -101 -13 -4 -26 -11 -29 -16 -3 -5 -13 -2 -23 7 -9
9 -16 12 -16 6 0 -6 -5 -11 -11 -11 -5 0 -7 5 -3 11 3 6 1 14 -5 18 -12 8 10
65 31 77 6 4 5 9 -3 15 -10 6 -8 8 6 8 11 0 43 4 70 9 28 5 55 10 61 11 6 0
10 -14 9 -34z m-250 -95 c3 -5 1 -10 -4 -10 -6 0 -11 5 -11 10 0 6 2 10 4 10
3 0 8 -4 11 -10z m-1205 -110 c21 -22 42 -49 45 -60 9 -29 25 -14 25 23 1 29
2 30 14 15 8 -11 31 -19 57 -22 51 -4 57 -14 24 -39 -14 -10 -25 -14 -25 -8 0
6 -11 7 -27 2 -16 -4 -35 -6 -43 -4 -10 3 -8 -2 5 -13 11 -9 15 -18 9 -20 -10
-4 -10 -44 0 -107 3 -19 0 -30 -11 -34 -12 -5 -11 -9 8 -19 l24 -12 -26 -10
c-14 -6 -46 -12 -70 -14 -39 -3 -44 -1 -41 16 3 17 1 18 -11 7 -13 -10 -18 -8
-32 13 -10 14 -21 23 -26 20 -5 -3 -9 3 -9 12 0 10 -3 14 -7 11 -4 -4 -12 6
-20 23 -7 17 -18 30 -25 29 -35 -4 -41 1 -24 20 17 18 17 20 -1 30 -17 10 -17
12 6 31 19 16 21 23 11 35 -10 12 -9 16 4 21 10 4 15 12 12 20 -7 17 57 38 97
31 18 -3 26 -3 20 0 -13 5 -19 43 -7 43 3 0 23 -18 44 -40z m872 -100 c-18
-32 -29 -34 -46 -8 -8 13 -4 21 15 36 35 29 53 11 31 -28z m-121 -41 c11 -11
19 -21 17 -22 -1 -1 -13 -8 -25 -14 -32 -18 -81 -25 -89 -12 -4 8 -9 7 -15 -2
-4 -7 -11 -11 -14 -7 -3 3 1 13 10 21 8 9 15 21 15 27 0 6 4 9 9 6 4 -3 17 1
27 9 26 20 41 18 65 -6z m-919 -68 c8 11 9 11 6 1 -4 -16 -22 -18 -25 -2 -1 7
0 6 4 -1 4 -8 8 -7 15 2z m1488 -7 c0 -13 -7 -15 -31 -10 -17 3 -43 6 -58 7
l-26 1 25 8 c46 15 90 12 90 -6z m-1840 -44 c0 -5 9 -10 19 -10 11 0 23 -5 27
-12 5 -8 -3 -9 -27 -5 -19 3 -28 3 -21 0 6 -2 12 -16 12 -29 0 -13 4 -24 9
-24 18 0 4 -30 -32 -69 -20 -22 -50 -68 -66 -103 -68 -146 -78 -190 -55 -245
8 -19 10 -33 4 -33 -18 0 -49 -78 -55 -137 -6 -71 -15 -116 -54 -263 -33 -122
-48 -261 -32 -301 5 -15 5 -47 -1 -84 -8 -41 -7 -60 0 -63 7 -2 5 -12 -4 -30
-9 -17 -10 -30 -4 -36 12 -12 13 -66 1 -66 -13 0 -19 -118 -8 -170 5 -25 10
-52 11 -60 3 -17 12 -43 29 -80 30 -65 175 -218 236 -249 40 -21 57 -39 24
-27 -16 6 -16 6 0 -12 9 -10 17 -24 17 -30 0 -7 8 -13 18 -13 16 -1 16 -2 -1
-6 -9 -2 -15 -9 -11 -14 3 -5 10 -7 15 -4 5 4 9 2 9 -4 0 -5 10 -13 21 -16 12
-4 42 -23 68 -43 25 -19 36 -32 24 -28 -12 4 -24 2 -28 -4 -9 -15 -55 -4 -109
26 -59 33 -203 185 -214 226 -5 19 -5 34 0 37 13 4 -22 41 -39 41 -7 0 -13 4
-13 9 0 5 -19 31 -43 57 -72 81 -78 108 -77 332 0 107 2 197 5 201 2 4 5 110
6 235 2 126 6 220 10 210 4 -12 9 2 13 41 4 33 10 90 15 128 4 37 6 67 4 67
-2 0 -9 -14 -15 -31 -8 -23 -13 -27 -19 -17 -14 22 -10 65 11 120 13 35 20 77
20 125 0 86 16 168 37 189 10 10 13 25 9 44 -4 20 -1 30 7 30 6 0 3 7 -7 15
-11 8 -14 15 -7 15 6 0 18 15 26 34 8 18 21 36 30 39 8 4 15 13 15 21 0 23 41
46 80 46 37 0 90 19 90 33 0 4 5 7 10 7 6 0 10 -4 10 -10z m1402 -8 c-7 -2 -9
-8 -6 -13 3 -6 3 -21 0 -35 -5 -17 -13 -24 -31 -24 -22 0 -23 2 -12 23 27 48
41 65 51 60 6 -4 5 -8 -2 -11z m-112 -42 c0 -5 -5 -10 -11 -10 -5 0 -7 5 -4
10 3 6 8 10 11 10 2 0 4 -4 4 -10z m114 -76 c9 -22 -3 -32 -14 -14 -12 19 -12
30 -1 30 5 0 12 -7 15 -16z m-8410 -6 c-3 -4 4 -8 15 -8 26 0 41 -28 39 -75
-1 -20 3 -40 8 -43 5 -4 9 -25 9 -46 0 -38 -1 -39 -48 -53 -26 -8 -50 -20 -54
-28 -8 -24 -39 -17 -58 12 -13 19 -19 54 -23 119 l-5 93 32 19 c30 18 95 26
85 10z m8826 -29 c0 -5 -4 -9 -8 -9 -5 0 -9 7 -9 15 0 8 4 12 9 9 4 -3 8 -9 8
-15z m-90 3 c0 -9 -44 -32 -61 -32 -16 0 1 20 25 30 28 11 36 12 36 2z m-600
-22 c8 -5 12 -11 10 -14 -3 -2 -61 -6 -130 -9 -69 -3 -133 -8 -142 -12 -11 -4
-18 -3 -18 4 0 6 0 14 0 19 -1 16 256 28 280 12z m-7234 -168 c6 -4 11 -25 12
-46 1 -21 3 -41 6 -43 8 -8 -27 -98 -61 -153 -26 -44 -33 -66 -33 -107 0 -29
-13 -116 -29 -195 -16 -79 -32 -165 -36 -191 -3 -27 -9 -59 -12 -70 -3 -12
-12 -62 -19 -112 -8 -49 -23 -117 -33 -150 -10 -33 -29 -94 -41 -135 -24 -82
-43 -139 -61 -185 -7 -16 -14 -37 -15 -45 -3 -19 -64 -163 -91 -216 -25 -46
-73 -86 -73 -59 0 8 -11 20 -24 26 -23 11 -23 12 -10 58 8 25 17 53 21 61 3 8
7 17 8 20 1 3 11 25 23 50 12 25 22 50 22 57 0 7 15 43 34 80 19 37 51 120 72
183 20 63 41 120 45 125 6 8 22 73 24 97 0 3 3 10 8 14 4 4 7 18 7 30 0 13 4
25 9 28 8 5 13 25 26 101 2 17 16 86 29 155 14 69 27 143 31 165 3 22 7 47 10
55 2 8 6 43 10 78 4 50 2 64 -10 68 -8 4 -15 12 -15 18 0 7 -9 31 -20 54 -19
40 -19 43 -4 67 9 14 20 40 23 58 5 23 16 37 41 49 36 18 107 23 126 10z
m3417 -596 c14 -2 34 -9 43 -14 16 -9 15 -11 -5 -22 -16 -8 -20 -15 -13 -22 8
-8 16 -6 27 6 20 20 34 20 59 1 19 -14 19 -16 2 -28 -16 -12 -16 -13 6 -15 84
-6 106 0 75 22 -24 18 -22 22 14 35 41 14 72 14 64 0 -4 -6 -13 -8 -21 -5 -8
3 -11 0 -7 -10 5 -13 32 -15 72 -5 2 1 -2 8 -9 16 -18 21 -10 25 34 18 38 -6
40 -10 22 -53 -4 -10 3 -19 24 -28 16 -8 30 -20 30 -28 0 -8 8 -14 18 -15 9
-1 -3 -7 -28 -14 -28 -8 -36 -13 -22 -14 12 -1 22 -5 22 -9 0 -10 -41 -9 -58
1 -7 5 -18 4 -25 -1 -7 -5 -73 -10 -147 -10 -256 -2 -465 -12 -590 -28 -169
-21 -186 -23 -330 -29 -69 -3 -151 -7 -184 -10 -32 -3 -65 -1 -73 4 -15 8 -62
-4 -92 -23 -10 -7 -12 -6 -6 4 6 10 3 11 -16 6 -28 -9 -68 -17 -89 -18 -8 -1
-24 -7 -35 -14 -19 -14 -19 -14 5 -15 l25 0 -25 -11 c-29 -12 -41 -16 -92 -24
-21 -3 -43 -12 -49 -20 -6 -8 -20 -14 -29 -14 -27 0 -107 -37 -112 -51 -2 -7
-21 -13 -44 -13 -21 -1 -45 -5 -52 -9 -7 -5 -12 -5 -11 0 4 22 -4 23 -34 4
-19 -12 -38 -17 -46 -12 -8 6 -2 10 20 15 18 3 29 9 26 12 -15 15 168 144 203
144 8 0 42 11 75 24 33 13 98 38 145 56 47 18 90 35 95 40 34 25 273 94 395
114 59 9 93 17 143 33 33 10 52 12 60 5 8 -7 27 -7 58 -1 138 30 387 42 482
25z m147 -20 c0 -3 -4 -8 -10 -11 -5 -3 -10 -1 -10 4 0 6 5 11 10 11 6 0 10
-2 10 -4z m3616 -26 c25 -12 60 -44 87 -79 42 -53 46 -62 43 -107 -4 -64 -29
-116 -82 -170 -52 -53 -84 -69 -149 -78 -40 -5 -58 -2 -90 15 -47 25 -105 78
-105 96 0 7 -4 13 -9 13 -4 0 -14 26 -20 59 -10 52 -9 65 9 113 22 60 76 119
130 142 51 22 135 20 186 -4z m-3196 -80 c-8 -5 -19 -10 -25 -10 -5 0 -3 5 5
10 8 5 20 10 25 10 6 0 3 -5 -5 -10z m212 -6 c9 -5 -2 -44 -13 -44 -5 0 -6 7
-3 15 5 11 -3 17 -25 21 -47 10 -51 27 -4 18 21 -3 41 -8 45 -10z m78 -24 c13
-9 13 -10 0 -9 -8 1 -26 5 -40 9 l-25 8 25 1 c14 0 32 -4 40 -9z m-164 -8 c-8
-14 30 -40 68 -48 58 -10 41 -24 -28 -22 -36 1 -63 6 -60 10 7 11 -18 35 -42
41 -17 4 -16 5 4 7 38 4 40 5 48 13 10 10 16 9 10 -1z m235 -17 c70 -25 118
-48 114 -54 -3 -6 -52 -5 -90 2 -11 2 -24 -2 -30 -9 -8 -12 -14 -12 -35 -1
-14 7 -37 12 -52 10 -16 -1 -28 3 -28 8 0 6 5 7 10 4 6 -3 10 0 11 7 0 10 2
10 6 -1 4 -10 7 -10 13 -1 4 7 19 13 34 13 31 2 32 5 9 23 -24 18 -15 17 38
-1z m-81 -5 c0 -5 -4 -10 -10 -10 -5 0 -10 5 -10 10 0 6 5 10 10 10 6 0 10 -4
10 -10z m1814 -45 c3 -8 1 -15 -4 -15 -6 0 -10 7 -10 15 0 8 2 15 4 15 2 0 6
-7 10 -15z m-2429 -64 c4 -9 0 -11 -11 -7 -14 5 -15 4 -4 -8 10 -13 9 -18 -3
-30 -8 -8 -17 -12 -21 -9 -3 4 -6 1 -6 -5 0 -7 15 -12 35 -12 24 0 37 -6 45
-20 9 -16 21 -20 58 -20 75 1 136 -7 140 -18 2 -6 10 -8 18 -5 7 3 11 10 8 17
-3 6 1 3 10 -8 10 -12 23 -17 41 -14 17 4 29 0 35 -11 7 -12 9 -13 10 -2 0 8
3 12 6 9 3 -4 5 -10 4 -14 0 -4 27 -16 62 -28 42 -14 62 -26 60 -35 -3 -12 0
-12 13 -1 13 11 15 10 9 -4 -4 -11 -1 -16 11 -16 9 0 13 5 10 10 -3 6 -3 10 2
11 4 0 18 2 31 5 28 5 62 -12 62 -30 0 -16 27 -29 41 -20 5 3 9 0 9 -6 0 -6 5
-8 10 -5 6 3 10 2 10 -4 0 -6 7 -8 15 -5 8 4 15 1 15 -6 0 -6 5 -8 10 -5 6 3
10 1 10 -5 0 -6 4 -9 9 -6 13 8 61 -17 61 -33 0 -11 3 -11 15 -1 11 9 15 9 15
1 0 -7 4 -9 10 -6 6 3 7 -1 4 -9 -4 -10 1 -18 12 -23 11 -4 36 -18 57 -31 29
-19 37 -31 37 -54 0 -23 -4 -29 -15 -24 -9 3 -15 0 -15 -9 0 -8 7 -15 16 -15
8 0 20 -14 26 -31 6 -19 15 -28 24 -25 8 3 13 2 12 -2 -3 -14 14 -42 23 -36 5
3 9 -2 9 -10 0 -9 5 -16 11 -16 5 0 7 -5 4 -11 -4 -6 -12 -8 -19 -6 -22 8 -56
-12 -56 -34 0 -12 -8 -23 -20 -26 -16 -4 -18 -9 -10 -24 8 -15 7 -17 -5 -13
-8 4 -15 12 -15 20 0 17 -16 17 -55 -1 l-30 -14 32 6 c28 5 31 3 26 -16 -3
-11 -9 -18 -14 -15 -19 11 -53 13 -68 3 -14 -9 -14 -10 2 -5 11 3 17 0 17 -9
0 -17 12 -19 26 -5 7 7 11 6 11 -3 0 -8 -9 -13 -21 -12 -12 0 -27 -3 -34 -9
-9 -7 -15 -3 -19 13 -4 14 -11 20 -20 17 -8 -3 -21 1 -29 9 -18 17 -34 20 -34
5 0 -7 -6 -7 -17 -2 -10 5 -35 12 -55 16 -21 4 -38 11 -38 15 0 5 -21 16 -47
26 -139 52 -191 90 -143 102 11 3 21 13 21 22 1 14 2 14 6 -1 2 -9 10 -15 17
-12 16 6 20 82 5 104 -8 13 -11 13 -24 -3 -17 -23 -8 -50 13 -42 12 4 13 3 2
-10 -18 -22 -39 -18 -52 10 -12 27 -36 32 -71 13 -26 -15 -37 -29 -31 -39 3
-6 -25 -22 -34 -20 -1 1 -18 -6 -38 -14 -25 -10 -41 -12 -54 -5 -10 6 -32 10
-49 10 -31 0 -61 22 -61 45 0 8 -12 15 -27 17 -21 2 -32 13 -47 43 -19 42 -39
61 -44 45 -2 -6 -15 -10 -28 -10 -17 0 -23 4 -18 12 4 7 3 8 -4 4 -7 -4 -12
-15 -13 -24 0 -11 -2 -13 -6 -4 -4 10 -10 9 -26 -5 -11 -10 -17 -13 -13 -6 7
13 -40 50 -51 40 -3 -4 -15 -1 -27 5 -11 7 -24 11 -28 10 -5 -1 -8 3 -8 9 0 5
-4 7 -10 4 -12 -7 -38 6 -39 20 -2 20 -26 9 -29 -12 -4 -28 -22 -30 -22 -3 0
25 -16 26 -29 2 -6 -11 -5 -28 4 -50 11 -24 11 -32 2 -32 -8 0 -7 -3 2 -9 21
-13 -33 -22 -157 -26 -59 -1 -114 -5 -122 -8 -8 -3 -35 -12 -60 -21 -56 -20
-64 -20 -57 -1 10 24 -8 25 -34 1 -23 -21 -48 -30 -104 -39 -11 -2 -37 -12
-57 -21 -20 -10 -42 -19 -50 -20 -7 -1 -33 -12 -58 -23 -25 -11 -67 -31 -95
-43 -27 -13 -59 -24 -70 -24 -11 -1 -22 -3 -25 -6 -8 -9 -83 -38 -112 -44 -16
-4 -28 -11 -28 -16 0 -6 -4 -10 -9 -10 -12 0 -98 -57 -126 -83 -11 -10 -37
-28 -58 -38 -48 -25 -244 -223 -239 -241 1 -5 -6 -17 -15 -28 -49 -54 -159
-210 -148 -210 3 0 -3 -9 -12 -20 -10 -11 -23 -20 -30 -20 -18 0 -27 -20 -14
-33 6 -6 11 -22 11 -35 0 -15 4 -21 12 -16 17 11 -25 -47 -56 -75 -14 -14 -26
-28 -26 -33 0 -5 -12 -21 -26 -36 -14 -15 -37 -46 -51 -69 -27 -46 -45 -52
-81 -27 -20 14 -22 14 -22 0 0 -9 -5 -16 -11 -16 -8 0 -7 -5 1 -15 11 -13 10
-14 -2 -10 -11 4 -17 -2 -20 -19 -4 -17 -1 -23 9 -19 9 3 13 -3 13 -21 0 -14
0 -29 1 -33 0 -5 -7 -9 -15 -11 -9 -2 -16 1 -16 7 0 12 -36 51 -46 51 -10 0
-74 70 -74 81 0 22 -154 158 -166 147 -6 -7 40 -58 52 -58 5 0 20 -14 34 -32
14 -17 30 -36 36 -42 6 -6 27 -33 48 -61 21 -27 41 -52 45 -55 3 -3 18 -24 33
-47 l27 -41 -19 -25 c-22 -27 -26 -42 -10 -32 17 10 11 -6 -7 -24 -10 -9 -20
-25 -21 -36 -2 -11 -11 -33 -19 -50 -14 -27 -79 -209 -87 -246 -2 -8 -12 -45
-21 -81 -9 -36 -17 -76 -17 -89 -1 -13 -6 -30 -12 -38 -8 -11 -8 -13 1 -7 7 4
1 -17 -12 -46 -14 -29 -25 -63 -25 -76 0 -13 -4 -21 -8 -18 -8 5 -26 -50 -36
-112 -4 -20 -2 -31 4 -27 6 3 10 1 10 -4 0 -6 -5 -11 -11 -11 -5 0 -7 -4 -4
-10 3 -6 2 -10 -4 -10 -5 0 -9 8 -9 18 1 20 -19 72 -27 72 -4 0 -3 -9 0 -20 3
-11 3 -30 -1 -42 -6 -19 -7 -19 -16 -5 -5 10 -21 17 -39 17 -18 0 -28 4 -24
10 3 6 1 10 -4 10 -6 0 -11 21 -11 47 0 44 -1 45 -15 27 -13 -16 -14 -16 -9
-1 3 9 1 17 -5 17 -15 0 -34 -39 -27 -56 6 -15 5 -15 -38 -18 -44 -2 -44 -24
1 -32 21 -4 46 -7 55 -6 13 0 19 -13 28 -56 13 -68 23 -88 42 -84 16 2 17 -4
19 -98 1 -36 6 -71 11 -77 6 -7 7 -13 3 -13 -5 0 -1 -8 8 -18 10 -10 14 -21
11 -25 -4 -3 -8 -18 -9 -32 -3 -19 1 -25 16 -25 15 0 19 -7 18 -32 0 -18 -4
-42 -9 -53 -8 -21 -9 -21 -25 31 -3 8 -10 12 -15 9 -6 -4 -9 -3 -8 2 2 5 -6
18 -17 30 l-20 22 3 -38 c3 -34 6 -37 28 -33 14 2 24 0 24 -7 0 -7 -8 -11 -17
-9 -15 2 -18 -4 -18 -38 1 -30 -3 -40 -12 -37 -8 3 -13 -3 -13 -18 0 -19 2
-21 10 -9 6 9 10 10 10 3 0 -6 -5 -15 -10 -18 -8 -5 -7 -12 2 -22 6 -8 13 -40
14 -71 4 -77 5 -81 23 -74 14 5 14 3 0 -14 -9 -10 -14 -25 -11 -33 3 -9 0 -11
-8 -6 -9 6 -9 3 -1 -12 5 -11 12 -35 14 -54 3 -19 7 -41 11 -49 13 -35 13 -89
-1 -94 -32 -13 -47 -9 -168 44 -11 5 -37 14 -57 20 -21 6 -38 15 -38 20 0 9
-80 50 -98 50 -15 0 -16 -16 -2 -25 6 -3 10 -12 9 -18 0 -9 -2 -8 -6 1 -2 6
-9 9 -15 6 -9 -6 -33 20 -37 38 -1 4 -8 26 -16 48 -12 34 -12 42 0 53 11 10
10 15 -3 31 -10 11 -11 16 -4 12 10 -6 11 -1 5 21 -4 15 -8 49 -8 76 0 26 -4
47 -10 47 -6 0 -19 30 -29 68 -16 54 -20 109 -24 286 -2 120 -1 233 2 251 10
50 35 73 73 68 38 -6 42 6 13 32 -19 17 -20 17 -20 1 0 -38 -25 -7 -28 35 -3
52 45 308 87 464 21 78 27 113 19 120 -8 7 -9 5 -5 -7 3 -9 0 -22 -8 -28 -11
-9 -12 -7 -7 12 3 12 11 34 19 48 7 14 13 31 13 38 0 14 19 48 40 73 8 10 24
40 34 66 11 26 22 50 25 53 12 10 31 50 31 65 0 8 5 15 11 15 8 0 7 6 -2 17
-11 13 -11 17 -1 20 6 3 12 13 12 23 0 10 5 20 12 22 8 3 8 12 0 34 -6 17 -11
22 -11 12 -1 -10 -5 -18 -11 -18 -5 0 -10 -7 -10 -15 0 -8 -8 -23 -18 -33 -10
-10 -17 -25 -14 -33 2 -9 1 -10 -5 -3 -4 6 -16 10 -27 8 -18 -2 -18 -2 1 15
10 10 25 21 33 24 10 3 6 6 -9 6 -20 1 -21 3 -11 16 7 8 9 15 5 15 -5 0 0 9 9
19 12 13 14 20 5 23 -17 6 16 54 42 61 12 3 18 10 15 16 -4 5 3 27 14 48 11
21 20 41 20 46 0 4 22 43 50 85 32 51 47 85 44 98 -3 11 5 35 20 57 14 21 26
42 26 47 0 5 8 15 19 22 10 7 19 18 21 23 4 18 14 31 40 48 14 10 35 36 47 59
13 24 23 37 23 30 0 -7 -5 -22 -10 -33 -15 -27 2 -24 28 5 14 17 17 26 9 30
-7 4 -2 4 11 2 17 -3 24 2 28 20 6 24 40 51 57 46 5 -1 6 2 2 8 -7 11 45 64
54 54 3 -4 1 -9 -6 -11 -7 -2 -9 -11 -6 -19 3 -8 1 -14 -5 -14 -14 0 -23 -28
-12 -35 5 -3 16 8 25 25 9 18 23 30 36 30 13 0 18 4 13 12 -4 6 -3 8 4 4 6 -3
17 1 24 9 7 9 41 46 76 82 34 36 62 72 62 80 0 14 11 21 45 26 24 3 68 44 61
56 -3 4 11 13 30 20 18 7 35 17 35 22 1 5 2 15 3 22 1 6 9 11 19 9 10 -2 17 3
17 13 0 9 8 19 18 22 9 4 28 15 41 25 13 10 28 15 34 11 6 -3 7 -1 3 5 -4 7
-3 12 2 12 5 0 19 9 32 20 13 11 28 19 34 17 6 -2 17 3 24 12 8 9 10 10 6 2
-4 -9 -2 -12 7 -9 8 3 13 11 11 17 -1 7 2 10 7 7 5 -3 20 3 34 14 23 18 81 45
83 38 0 -2 8 5 17 14 9 9 43 31 74 49 32 18 64 41 71 50 15 22 70 50 74 38 2
-5 16 -2 32 6 15 8 32 15 37 15 4 0 31 13 59 30 27 16 50 27 50 23 0 -3 8 1
18 9 9 8 30 18 45 22 17 4 25 11 21 18 -4 6 -3 8 4 5 17 -11 42 3 66 40 13 19
27 30 30 25 7 -12 82 5 111 25 24 16 55 17 55 2 0 -8 12 -9 38 -5 20 4 149 10
287 12 137 3 251 7 253 8 1 2 70 3 152 2 116 -1 151 -4 155 -15z m2425 -77 c0
-12 7 -27 15 -34 19 -16 19 -49 0 -74 -8 -11 -15 -35 -15 -53 0 -18 -5 -33
-11 -33 -7 0 -8 24 -3 78 9 94 9 89 0 132 -5 26 -4 31 3 20 6 -8 11 -25 11
-36z m-1910 -114 c0 -5 -2 -10 -4 -10 -3 0 -8 5 -11 10 -3 6 -1 10 4 10 6 0
11 -4 11 -10z m-2559 -90 c-3 -3 -12 -13 -20 -23 -13 -16 -12 -18 12 -13 63
11 131 -33 73 -48 -13 -3 -45 -29 -72 -56 -27 -28 -55 -57 -62 -63 -19 -18
-193 -192 -223 -225 -14 -15 -39 -39 -56 -53 -16 -13 -51 -51 -77 -84 -58 -71
-64 -76 -92 -69 -16 4 -31 -6 -65 -47 -24 -29 -54 -64 -67 -78 -12 -13 -46
-56 -74 -95 -28 -39 -68 -84 -88 -101 -21 -16 -45 -46 -54 -67 -9 -20 -28 -53
-42 -73 -14 -20 -43 -74 -66 -119 -22 -44 -44 -83 -47 -86 -4 -3 -13 -21 -21
-40 -21 -56 -43 -105 -50 -110 -4 -3 -16 -26 -29 -52 -12 -25 -35 -64 -50 -85
-16 -22 -32 -54 -36 -71 -7 -36 -24 -51 -35 -32 -4 7 -9 1 -13 -17 -3 -15 -9
-37 -12 -48 -6 -17 -5 -17 5 -5 9 12 10 10 4 -10 -4 -14 -7 -31 -7 -38 0 -7
-6 -11 -13 -8 -16 6 -26 -18 -12 -32 17 -17 1 -79 -22 -85 -13 -3 -18 -10 -14
-21 3 -9 11 -13 18 -9 6 3 -2 -8 -19 -26 -19 -20 -24 -30 -12 -26 27 11 20 -1
-27 -49 -24 -25 -41 -47 -38 -50 2 -3 -1 -13 -9 -22 -8 -10 -13 -20 -13 -23 1
-3 -2 -16 -7 -29 -5 -13 -9 -29 -9 -37 0 -8 -4 -16 -8 -19 -10 -6 -5 81 9 177
8 46 15 67 25 67 8 0 14 10 13 23 -1 48 10 100 25 116 11 13 13 25 8 47 -5 16
-5 40 -1 54 4 14 7 19 8 13 1 -7 6 -13 11 -13 7 0 7 6 0 19 -14 27 -13 34 6
27 12 -5 15 -2 9 11 -15 37 -17 53 -6 53 6 0 11 -5 11 -11 0 -5 5 -7 11 -3 8
5 6 10 -6 16 -15 9 -15 11 4 29 28 26 28 43 0 29 -19 -11 -20 -10 -9 9 6 12
16 20 22 18 6 -1 13 5 15 13 4 13 3 13 -7 0 -9 -13 -11 -12 -8 5 2 11 8 20 15
20 17 0 26 12 29 38 5 43 17 82 28 89 6 4 12 18 13 30 4 48 17 84 44 126 16
24 29 48 29 55 0 7 7 21 15 31 8 11 15 29 15 40 0 17 2 18 10 6 5 -8 10 -10
11 -5 1 6 2 15 4 20 1 6 3 18 3 28 1 9 18 33 37 51 19 19 35 37 35 41 0 3 7
13 15 21 8 8 11 22 8 31 -4 10 -2 14 4 10 7 -4 27 18 50 52 21 33 43 60 50 60
7 1 10 7 7 15 -8 22 37 84 73 101 19 9 56 47 87 89 29 40 85 105 122 146 130
137 484 438 569 483 29 15 30 14 36 -6 3 -12 3 -24 0 -27z m3054 -168 c13 -9
18 -32 7 -32 -4 0 -13 5 -20 12 -21 21 -11 38 13 20z m-1081 -30 c2 -4 -4 -9
-15 -9 -11 -1 -17 2 -14 8 7 11 22 12 29 1z m1877 -159 c13 -16 12 -17 -3 -4
-10 7 -18 15 -18 17 0 8 8 3 21 -13z m39 -21 c0 11 65 -19 65 -31 0 -15 124
-139 146 -146 10 -4 19 -10 19 -14 0 -11 31 -51 69 -89 24 -24 34 -42 33 -63
0 -16 4 -27 9 -23 5 3 7 10 4 15 -10 15 12 10 55 -12 23 -12 37 -26 33 -32 -4
-7 0 -8 13 -3 10 4 15 4 12 0 -4 -3 5 -19 20 -34 45 -47 61 -71 68 -104 3 -17
14 -42 24 -56 23 -34 50 -106 43 -114 -8 -7 17 -37 27 -31 8 5 68 -147 94
-240 10 -33 24 -80 31 -105 31 -105 45 -161 64 -255 26 -133 41 -231 43 -283
1 -24 5 -45 10 -48 4 -3 1 -18 -7 -34 -9 -17 -12 -40 -9 -58 4 -17 1 -32 -5
-36 -6 -4 -11 -20 -11 -35 0 -15 -5 -32 -11 -38 -31 -31 -28 -114 5 -135 16
-11 -10 -239 -40 -349 -15 -52 -27 -99 -28 -105 -1 -7 -7 -18 -14 -26 -6 -8
-10 -17 -7 -20 3 -3 -7 -10 -21 -17 -26 -11 -26 -11 -20 16 5 20 4 24 -3 13
-15 -21 -23 -7 -12 21 6 18 5 30 -5 43 -10 15 -11 23 -2 40 17 30 21 66 7 66
-8 0 -9 4 0 13 6 8 8 17 4 21 -4 4 -1 11 7 16 10 7 11 10 3 10 -7 0 -13 4 -13
10 0 5 8 6 18 3 14 -6 15 -4 5 9 -7 8 -10 18 -6 21 3 4 -2 9 -11 13 -14 5 -16
14 -11 45 12 68 12 89 4 89 -5 0 -6 6 -3 14 3 9 12 12 22 8 15 -5 15 -4 3 11
-7 9 -10 17 -7 17 4 0 -2 9 -12 21 -34 35 -62 126 -51 162 8 28 5 170 -5 224
-14 75 -17 123 -7 123 6 0 11 7 11 16 0 11 -8 14 -27 12 -16 -2 -28 2 -28 7 0
6 3 9 8 7 4 -1 6 12 5 28 -1 17 -7 29 -13 26 -6 -2 -12 10 -13 27 -3 30 -2 31
12 12 9 -11 16 -15 16 -8 0 6 -7 19 -16 27 -8 9 -12 16 -7 16 4 0 1 6 -7 13
-16 13 -22 30 -22 65 0 12 -4 25 -9 28 -16 9 -10 53 9 63 14 8 14 10 2 11 -15
0 -56 108 -45 119 3 2 5 -1 5 -7 0 -7 4 -12 10 -12 10 0 5 45 -10 90 -25 77
-42 143 -44 172 -2 18 -4 38 -5 45 0 6 -19 34 -40 61 -22 27 -41 58 -43 68 -2
10 -13 28 -25 40 -13 11 -20 24 -16 27 3 4 0 7 -8 7 -8 0 -19 9 -24 19 -45 86
-108 191 -116 191 -5 0 -9 6 -9 13 0 12 -25 45 -80 104 -17 18 -30 36 -30 40
0 5 -15 24 -33 44 -40 45 -62 77 -62 89 0 4 -3 11 -7 15 -4 4 -4 14 -1 22 5
12 7 12 14 1 5 -7 9 -10 9 -6z m-820 -56 c0 -18 -17 8 -24 34 l-7 25 15 -25
c9 -14 15 -29 16 -34z m1070 -20 c0 -7 11 -18 24 -25 15 -9 23 -21 22 -36 -1
-18 -4 -20 -18 -11 -10 6 -20 17 -23 24 -2 7 0 10 5 7 21 -13 9 8 -15 27 -28
21 -34 41 -10 32 8 -4 15 -12 15 -18z m-6590 -26 c0 -5 -8 -10 -17 -10 -15 0
-16 2 -3 10 19 12 20 12 20 0z m4523 -160 c4 0 7 -7 7 -15 0 -8 5 -15 11 -15
5 0 7 5 4 10 -3 6 -4 10 -2 10 9 0 115 -38 133 -48 10 -6 51 -25 89 -42 39
-18 78 -39 88 -48 9 -8 17 -12 17 -8 0 4 10 -3 23 -15 12 -12 35 -26 50 -31
32 -12 29 -19 -7 -23 -18 -2 -23 1 -19 11 4 10 0 12 -13 7 -12 -4 -15 -3 -10
5 5 8 2 10 -8 6 -9 -3 -16 -1 -16 5 0 6 -6 11 -14 11 -8 0 -18 5 -22 12 -5 7
-3 8 6 3 9 -5 11 -4 6 3 -4 7 -14 12 -22 12 -9 0 -12 -5 -8 -12 4 -7 3 -8 -5
-4 -6 4 -9 11 -6 16 8 12 -31 22 -57 15 -18 -5 -19 -4 -8 4 8 5 11 13 7 17 -4
4 -13 2 -19 -4 -18 -18 -30 -14 -23 8 7 23 -10 28 -19 5 -4 -11 -13 -14 -33
-9 -16 3 -35 6 -44 7 -9 1 -14 8 -12 17 3 11 -5 16 -28 17 -17 1 -37 7 -44 13
-14 12 -36 10 -46 -3 -4 -5 -9 2 -13 16 -7 31 -64 49 -80 25 -8 -13 -13 -13
-38 0 -23 11 -35 12 -55 3 -13 -6 -29 -9 -34 -6 -14 9 -11 -19 4 -34 20 -20
-26 -51 -79 -52 -53 -2 -55 -2 -76 -14 -11 -7 34 -10 140 -10 167 0 249 -7
295 -24 35 -14 40 -14 32 -1 -16 26 12 4 60 -47 30 -31 60 -58 67 -59 13 -2
121 -96 184 -162 17 -18 37 -47 44 -65 7 -17 22 -51 34 -75 l21 -43 -24 -20
-23 -19 23 2 c18 2 25 -2 27 -20 2 -14 8 -20 15 -15 7 4 6 -1 -2 -10 -7 -9 -9
-17 -4 -17 14 0 14 -56 0 -69 -11 -8 -19 -5 -37 14 -13 14 -32 25 -42 25 -11
0 -16 5 -13 11 4 5 -7 15 -24 22 -17 6 -31 15 -31 19 0 4 -6 8 -13 8 -7 0 -18
9 -25 20 -7 11 -18 20 -26 20 -8 0 -16 7 -20 15 -3 8 -11 15 -18 15 -7 0 -23
11 -36 25 -13 13 -27 24 -30 24 -14 -2 -52 14 -52 21 0 4 -20 13 -45 20 -24 7
-43 17 -42 22 1 6 -4 13 -12 16 -10 3 -12 0 -8 -11 4 -11 2 -14 -9 -10 -7 3
-14 11 -14 19 0 8 -4 14 -10 14 -5 0 -10 -5 -10 -11 0 -8 -5 -8 -15 1 -8 7
-34 14 -57 15 -27 2 -36 0 -27 -6 9 -6 10 -9 2 -9 -6 0 -15 5 -18 10 -4 6 -11
8 -16 5 -5 -4 -9 -3 -9 2 0 4 -29 8 -64 8 -36 1 -62 -3 -59 -7 2 -5 14 -6 26
-2 18 5 20 4 10 -7 -19 -20 -16 -33 5 -18 14 11 14 10 -2 -8 -17 -21 -43 -23
-31 -3 3 5 1 12 -5 15 -6 4 -9 1 -8 -6 2 -6 -3 -14 -11 -16 -9 -4 -11 0 -7 15
9 27 -22 39 -43 15 -15 -15 -15 -16 0 -5 13 10 18 7 28 -14 14 -31 15 -29 -26
-37 -27 -5 -33 -3 -33 11 0 14 -2 14 -9 3 -5 -8 -23 -14 -40 -15 -17 0 -31 -5
-32 -11 0 -5 -4 -1 -9 10 -5 11 -9 14 -9 7 -1 -7 -6 -10 -13 -6 -8 5 -9 2 -5
-9 3 -10 2 -17 -3 -17 -6 0 -10 8 -10 17 0 15 -2 14 -14 -2 -8 -11 -13 -22
-11 -25 2 -3 -13 -4 -33 -3 -21 1 -48 -5 -61 -14 -15 -10 -21 -11 -16 -2 6 8
4 10 -6 4 -46 -27 -70 -49 -65 -60 2 -7 -2 -16 -10 -19 -24 -9 -31 -7 -14 5
12 8 11 10 -5 7 -11 -2 -20 -8 -20 -14 0 -12 -21 -33 -55 -55 -14 -9 -55 -44
-93 -78 -66 -60 -85 -73 -71 -48 4 6 -2 4 -13 -6 -11 -9 -23 -14 -27 -10 -4 4
-4 -1 0 -10 5 -13 1 -20 -14 -24 -11 -3 -18 -11 -16 -18 3 -7 -1 -15 -9 -18
-8 -3 -23 -27 -33 -54 -10 -26 -24 -54 -31 -61 -7 -7 -13 -20 -13 -28 0 -8 -4
-13 -9 -10 -5 3 -14 -15 -21 -39 -7 -25 -17 -48 -21 -51 -5 -3 -9 -20 -9 -37
0 -20 -3 -27 -8 -19 -6 8 -16 -7 -31 -44 -28 -67 -25 -116 13 -199 19 -43 23
-61 15 -71 -6 -7 -8 -18 -5 -23 9 -14 -13 -24 -27 -13 -7 5 -22 13 -34 16 -20
7 -23 4 -23 -23 0 -17 4 -31 8 -31 4 0 15 -13 24 -28 14 -24 23 -28 53 -26 21
2 33 -1 30 -6 -4 -6 0 -10 8 -10 13 0 110 -43 160 -71 13 -7 23 -7 32 1 9 8
14 6 18 -9 3 -11 17 -22 35 -26 17 -3 49 -15 70 -25 22 -11 49 -17 61 -15 12
2 19 0 16 -6 -4 -5 -13 -9 -20 -9 -30 0 -95 -32 -88 -44 4 -6 1 -6 -9 2 -9 7
-34 11 -62 9 -25 -3 -46 0 -46 5 0 5 -4 7 -9 4 -5 -4 -12 0 -15 6 -3 7 -4 4
-3 -7 1 -15 -3 -19 -18 -17 -38 6 -75 24 -68 35 4 6 1 7 -7 2 -10 -6 -9 -11 6
-22 10 -8 18 -19 16 -24 -1 -6 2 -8 8 -4 5 3 10 1 10 -4 0 -6 6 -11 14 -11 8
0 17 -4 20 -9 3 -4 -7 -7 -22 -5 -23 3 -27 -1 -29 -23 -1 -18 2 -22 7 -12 7
11 10 11 15 -3 4 -9 14 -14 24 -11 9 2 23 -3 30 -11 16 -19 12 -19 -59 -2 -88
22 -117 35 -100 47 10 6 4 7 -19 2 -22 -4 -32 -3 -28 4 4 6 -12 16 -36 23 -23
6 -46 16 -52 20 -5 4 -19 4 -30 -1 -11 -4 -14 -8 -7 -8 14 -1 85 -51 90 -63 2
-5 12 -8 23 -8 10 0 19 -7 19 -15 0 -8 15 -19 33 -25 l32 -10 -35 5 c-19 3
-47 14 -62 25 -25 18 -50 27 -106 35 -13 2 -28 7 -35 12 -7 5 -31 15 -53 21
-64 18 -123 55 -194 122 -35 33 -68 60 -72 60 -4 0 -20 12 -36 27 -16 16 -39
36 -51 45 -21 18 -28 38 -12 38 5 0 14 -7 21 -15 7 -8 19 -15 26 -15 19 0 18
39 -2 47 -8 3 -13 11 -10 19 3 7 1 14 -3 16 -4 2 -11 18 -14 37 -6 27 -4 32 8
27 22 -8 19 21 -5 46 -11 12 -20 28 -20 36 0 8 -6 12 -15 8 -8 -3 -15 -1 -15
4 0 6 7 10 15 10 13 0 14 4 3 23 -6 12 -11 36 -10 52 2 18 0 25 -5 18 -5 -7
-9 5 -9 30 0 23 -13 74 -28 112 -41 104 -35 153 37 296 42 84 80 142 146 220
137 163 361 383 442 435 87 55 219 124 239 124 8 0 26 6 40 13 61 32 240 60
240 38 0 -7 4 -10 9 -7 5 4 11 2 13 -3 1 -5 21 -2 43 6 22 8 69 16 105 17 36
2 75 6 88 10 16 5 29 3 40 -7 20 -17 110 -27 116 -12 3 6 8 5 13 -2 14 -20 36
2 37 37 l1 32 145 -6 c80 -3 148 -6 153 -6z m2572 -27 c19 -14 17 -14 -15 -8
-42 9 -50 13 -50 26 0 13 37 2 65 -18z m-5205 -85 c0 -4 -7 -8 -15 -8 -8 0
-15 4 -15 8 0 5 7 9 15 9 8 0 15 -4 15 -9z m5306 -23 c10 -8 15 -14 9 -14 -5
0 -19 6 -29 14 -11 8 -15 15 -10 15 6 0 19 -7 30 -15z m-2169 -137 c18 -13 33
-27 33 -32 0 -5 -10 0 -22 11 -13 11 -32 25 -43 31 -11 6 -16 12 -11 12 6 0
25 -10 43 -22z m-644 -232 c4 -10 1 -13 -8 -9 -8 3 -12 9 -9 14 7 12 11 11 17
-5z m107 -16 c0 -5 -4 -10 -10 -10 -5 0 -10 5 -10 10 0 6 5 10 10 10 6 0 10
-4 10 -10z m-205 -28 c-3 -3 -11 0 -18 7 -9 10 -8 11 6 5 10 -3 15 -9 12 -12z
m-4565 -52 c0 -5 -4 -10 -10 -10 -5 0 -10 5 -10 10 0 6 5 10 10 10 6 0 10 -4
10 -10z m-168 -25 c26 -7 26 -8 14 -48 -6 -22 -17 -42 -23 -44 -18 -6 -51 36
-55 72 -4 35 1 37 64 20z m522 -43 c2 -17 -1 -29 -5 -26 -5 3 -9 19 -9 36 0
39 9 32 14 -10z m1417 -221 c0 10 2 11 6 1 2 -6 10 -9 16 -6 9 5 9 4 1 -5 -15
-16 -46 -11 -52 9 -5 13 -3 13 11 1 14 -11 17 -11 18 0z m2706 -76 c98 -29
187 -101 225 -183 16 -36 39 -137 39 -177 2 -132 -19 -182 -116 -279 -69 -68
-137 -107 -199 -112 -11 -1 -25 -9 -31 -18 -7 -9 -18 -16 -24 -16 -7 0 -10 -4
-7 -9 5 -8 -49 -26 -67 -22 -5 1 -6 -3 -2 -9 3 -5 4 -10 1 -10 -2 0 -12 -3
-22 -7 -12 -4 -15 -3 -10 5 4 7 4 12 -1 12 -16 0 -98 -29 -84 -29 27 -2 0 -15
-32 -17 -18 -1 -32 -3 -32 -4 0 -1 -7 -3 -15 -5 -8 -1 -28 -6 -44 -10 -26 -7
-27 -6 -18 12 10 18 7 22 -31 34 l-42 13 75 8 c41 4 93 9 115 11 22 2 55 11
74 20 19 9 38 17 43 17 31 0 149 71 191 115 51 53 137 175 137 194 0 6 6 11
13 11 7 0 8 3 2 8 -20 14 -17 35 5 29 13 -3 20 0 20 9 0 8 -8 15 -17 15 -16 1
-16 2 -2 6 21 5 31 50 14 57 -9 3 -11 -2 -7 -16 4 -15 2 -19 -7 -13 -14 8 -45
-30 -46 -55 0 -24 -29 -18 -45 11 -19 32 -51 73 -66 82 -15 9 -62 -15 -80 -42
-15 -20 -51 -31 -39 -11 3 6 -1 7 -9 4 -9 -3 -14 -10 -11 -14 3 -4 -2 -10 -10
-14 -8 -3 -15 -1 -15 5 0 6 -7 9 -15 6 -8 -4 -17 -2 -20 3 -4 7 -13 6 -25 0
-16 -8 -23 -6 -37 10 -20 23 -53 27 -53 5 0 -19 -14 -19 -30 0 -11 13 -10 14
6 9 17 -6 17 -5 -1 9 -28 20 -93 38 -101 26 -11 -18 -25 -9 -15 10 8 14 7 20
-4 25 -18 6 -20 36 -3 36 9 0 9 3 0 12 -7 7 -12 19 -12 28 1 18 58 111 95 152
14 16 23 33 20 37 -21 34 274 54 372 26z m4342 -6 c17 -6 31 -15 31 -19 0 -5
7 -15 15 -24 14 -14 12 -16 -22 -25 -21 -5 -101 -12 -178 -15 -77 -3 -189 -10
-249 -16 -60 -5 -113 -7 -118 -4 -16 10 -8 63 11 74 11 5 66 15 123 21 56 5
105 12 107 15 9 9 250 3 280 -7z m-667 -61 c5 -85 5 -87 -26 -100 -38 -16 -62
-13 -84 8 -19 19 -24 94 -7 106 6 4 34 8 63 8 47 0 52 -2 54 -22z m-912 -193
c-7 -8 -17 -12 -23 -8 -6 4 -3 9 9 14 27 11 28 11 14 -6z m-16 -126 c-11 -18
-21 1 -16 28 5 27 5 27 14 4 4 -13 5 -27 2 -32z m6 -78 c0 -6 -4 -13 -10 -16
-5 -3 -10 1 -10 9 0 9 5 16 10 16 6 0 10 -4 10 -9z m-5994 -190 c-3 -9 -6 -41
-7 -71 -2 -30 -6 -62 -10 -70 -4 -8 -17 -46 -28 -85 -27 -90 -43 -115 -39 -60
1 22 9 46 18 53 13 11 13 11 -1 6 -14 -4 -16 1 -12 40 4 32 2 46 -6 46 -7 0
-9 5 -4 13 4 6 8 20 9 30 1 9 2 24 3 32 0 8 9 15 19 14 10 0 12 -3 5 -6 -7 -2
-13 -9 -13 -15 0 -6 6 -6 15 2 8 7 12 17 8 24 -10 15 -4 68 10 84 9 11 13 11
24 -4 7 -10 11 -25 9 -33z m-446 4 c0 -8 -2 -15 -4 -15 -2 0 -6 7 -10 15 -3 8
-1 15 4 15 6 0 10 -7 10 -15z m2825 5 c7 -12 -2 -12 -30 0 -19 8 -19 9 2 9 12
1 25 -3 28 -9z m991 -66 c-11 -7 -28 -26 -38 -41 l-18 -28 0 28 c0 20 8 32 32
47 35 21 54 17 24 -6z m39 -3 c-3 -6 -11 -11 -16 -11 -5 0 -4 6 3 14 14 16 24
13 13 -3z m-41 -44 c-3 -15 -11 -25 -18 -24 -6 1 -10 -3 -9 -9 1 -6 -5 -11
-13 -11 -11 0 -11 4 3 19 9 10 13 18 10 18 -4 0 1 9 10 20 21 24 26 20 17 -13z
m-69 -7 c3 -5 -1 -10 -9 -10 -9 0 -16 -4 -16 -10 0 -5 -10 -10 -22 -11 -23 0
-23 0 1 -12 19 -9 25 -9 29 1 5 17 22 15 22 -3 0 -16 -46 -39 -60 -30 -5 3
-12 -1 -17 -9 -4 -7 -24 -23 -43 -35 -19 -11 -28 -21 -20 -22 11 0 11 -2 2 -6
-10 -4 -10 -8 0 -20 11 -14 10 -15 -8 -9 -14 4 -26 1 -34 -9 -8 -9 -20 -13
-33 -9 -12 4 -17 2 -13 -4 3 -5 -3 -12 -14 -15 -11 -3 -20 0 -20 6 0 8 -3 9
-8 2 -4 -6 -18 -12 -31 -12 -13 -1 -27 -7 -31 -14 -5 -8 -13 -8 -27 -1 -12 7
-25 7 -34 1 -7 -5 -22 -9 -33 -9 -15 0 -16 3 -7 14 10 12 5 13 -26 11 -21 -2
-40 -4 -43 -5 -3 -2 -9 -2 -13 -1 -5 1 -6 -3 -2 -9 3 -6 10 -8 15 -5 5 3 12 0
16 -6 4 -7 3 -9 -4 -5 -6 3 -13 -2 -17 -13 -6 -19 -33 -36 -43 -26 -3 3 0 5 7
5 7 0 9 5 5 11 -3 6 0 15 7 20 9 6 10 9 2 9 -6 0 -18 -7 -27 -15 -22 -22 -32
-18 -11 5 10 11 13 20 7 20 -6 0 -13 -4 -16 -9 -10 -15 -52 0 -53 19 -1 16 3
17 28 10 16 -5 43 -5 61 1 18 5 42 9 54 9 12 0 39 8 60 17 22 9 43 16 48 14
13 -3 96 42 96 53 0 4 7 6 15 2 8 -3 14 0 12 5 -3 17 81 39 110 28 34 -13 40
-12 46 11 4 14 11 18 24 15 16 -5 17 -5 1 7 -15 11 -14 14 15 35 36 25 43 27
52 13z m-3290 -89 c-4 -23 -10 -43 -14 -45 -9 -6 -6 68 4 84 13 20 17 2 10
-39z m-114 -32 l-9 -54 -1 56 c0 31 2 59 6 63 13 12 14 -8 4 -65z m1026 -41
c-3 -8 -6 -5 -6 6 -1 11 2 17 5 13 3 -3 4 -12 1 -19z m2018 -78 c3 -5 1 -10
-4 -10 -6 0 -11 5 -11 10 0 6 2 10 4 10 3 0 8 -4 11 -10z m-2088 -32 c-3 -7
-5 -2 -5 12 0 14 2 19 5 13 2 -7 2 -19 0 -25z m1738 2 c18 -20 17 -20 -14 -20
-29 0 -30 2 -19 20 7 11 13 20 14 20 0 0 9 -9 19 -20z m65 -15 c0 -5 -5 -3
-10 5 -5 8 -10 20 -10 25 0 6 5 3 10 -5 5 -8 10 -19 10 -25z m-215 5 c13 -6
15 -9 5 -9 -8 0 -22 4 -30 9 -18 12 -2 12 25 0z m-1533 -66 c15 -86 5 -238
-15 -214 -31 40 -78 158 -57 145 4 -2 15 2 26 9 13 10 18 27 19 60 0 55 17 55
27 0z m-1447 16 c3 -5 1 -10 -4 -10 -6 0 -11 5 -11 10 0 6 2 10 4 10 3 0 8 -4
11 -10z m7965 3 c-8 -3 25 -14 72 -24 133 -26 201 -62 148 -76 -19 -5 -20 -6
-3 -19 16 -11 15 -13 -12 -10 -16 2 -33 4 -37 5 -5 0 -8 8 -8 17 0 18 -38 16
-59 -4 -9 -9 -23 -11 -40 -6 -44 11 -150 14 -156 4 -4 -6 7 -10 25 -10 18 0
57 -7 88 -16 36 -11 57 -13 60 -6 3 11 42 4 42 -9 0 -4 -5 -11 -11 -15 -8 -5
-8 -9 1 -14 7 -5 2 -9 -14 -12 -24 -5 -31 2 -27 25 1 5 -4 7 -11 5 -7 -3 -14
-14 -16 -25 -2 -11 -19 -29 -38 -39 -18 -10 -34 -21 -34 -24 0 -3 -25 -36 -56
-75 -40 -50 -61 -69 -75 -67 -41 7 -79 -149 -58 -235 8 -35 9 -60 3 -74 -14
-31 0 -147 19 -162 9 -7 21 -23 27 -37 5 -14 16 -33 22 -42 16 -23 1 -50 -33
-59 -38 -11 -191 -10 -231 1 -40 11 -58 33 -55 65 1 11 -8 24 -21 31 -34 17
-65 81 -67 139 -2 73 -16 167 -27 188 -13 26 10 234 30 264 8 14 28 39 45 56
16 18 46 52 66 77 52 65 79 87 145 121 74 39 185 68 256 68 30 0 48 -3 40 -6z
m-4767 -10 c-7 -2 -19 -2 -25 0 -7 3 -2 5 12 5 14 0 19 -2 13 -5z m44 1 c-3
-3 -12 -4 -19 -1 -8 3 -5 6 6 6 11 1 17 -2 13 -5z m-3289 -96 c17 -17 15 -40
-5 -36 -9 2 -18 13 -19 26 -4 24 6 28 24 10z m67 -28 c3 -5 1 -10 -4 -10 -6 0
-11 5 -11 10 0 6 2 10 4 10 3 0 8 -4 11 -10z m-65 -30 c0 -5 -5 -10 -11 -10
-5 0 -7 5 -4 10 3 6 8 10 11 10 2 0 4 -4 4 -10z m100 -84 c0 -42 -12 -52 -29
-24 -7 11 -8 17 -2 13 7 -4 11 4 11 19 0 14 5 26 10 26 6 0 10 -15 10 -34z
m1358 -35 c3 -8 -1 -12 -9 -9 -7 2 -15 10 -17 17 -3 8 1 12 9 9 7 -2 15 -10
17 -17z m1032 5 c14 -1 25 -6 25 -13 0 -6 4 -15 9 -20 5 -5 6 -3 2 5 -5 8 0
12 13 12 10 0 21 -5 23 -10 2 -6 14 -12 28 -14 44 -5 80 -18 80 -29 0 -6 3 -7
6 -4 4 3 16 1 28 -6 11 -6 26 -12 31 -12 22 -1 106 -28 111 -36 2 -4 11 -6 18
-3 7 3 16 -2 20 -11 5 -13 1 -15 -17 -9 -12 3 -28 11 -36 17 -10 9 -17 7 -27
-8 -11 -14 -14 -15 -14 -4 0 12 -10 15 -40 12 -32 -2 -40 0 -41 15 -1 16 -2
16 -6 -1 -2 -9 -9 -15 -14 -11 -5 3 -6 11 -2 17 5 9 3 9 -8 0 -8 -6 -22 -11
-31 -9 -24 3 -98 40 -98 49 0 4 -7 7 -15 7 -8 0 -15 3 -15 8 0 4 -23 20 -50
35 -53 30 -65 43 -27 31 12 -4 33 -7 47 -8z m-2359 -93 c7 -21 12 -42 10 -48
-2 -5 -4 -16 -4 -23 0 -7 -7 -10 -15 -7 -15 6 -14 -22 4 -85 8 -25 7 -25 -19
4 -32 35 -33 41 -7 91 14 28 17 41 8 46 -6 4 -12 19 -14 33 -4 40 22 32 37
-11z m8046 29 c15 -10 13 -52 -3 -52 -6 0 -17 -7 -24 -16 -8 -8 -21 -19 -30
-24 -14 -8 -17 -5 -15 13 1 12 3 28 4 35 0 6 8 12 16 12 8 0 15 9 15 20 0 21
16 26 37 12z m-5047 -32 c0 -5 3 -9 8 -9 4 1 16 0 27 -1 13 -1 15 -3 6 -7 -11
-5 -11 -7 0 -14 10 -6 5 -9 -16 -9 -31 0 -75 24 -75 41 0 5 11 9 25 9 14 0 25
-4 25 -10z m100 -15 c14 2 41 0 60 -5 30 -7 25 -8 -29 -7 -48 2 -65 6 -68 17
-3 11 -2 12 4 3 5 -7 20 -11 33 -8z m13 -32 c-7 -2 -19 -2 -25 0 -7 3 -2 5 12
5 14 0 19 -2 13 -5z m126 -19 c10 -9 -45 -3 -59 6 -11 7 -5 8 20 4 19 -4 37
-8 39 -10z m4708 -22 c-10 -2 -14 -9 -10 -20 6 -14 5 -15 -9 -2 -9 8 -12 17
-8 20 4 3 6 13 4 23 -2 18 -2 18 18 0 17 -15 18 -19 5 -21z m-4934 11 c-7 -2
-19 -2 -25 0 -7 3 -2 5 12 5 14 0 19 -2 13 -5z m-33 -23 c0 -12 -8 -12 -35 0
-18 8 -17 9 8 9 15 1 27 -3 27 -9z m90 -10 c0 -13 -36 -18 -56 -7 -17 10 -17
11 1 17 22 8 55 2 55 -10z m95 0 c3 -6 -1 -10 -9 -11 -54 -3 -70 -2 -73 7 -4
12 74 16 82 4z m92 -3 c2 -3 -12 -8 -33 -11 -39 -8 -57 0 -34 14 14 9 57 6 67
-3z m4510 -39 c-11 -18 -12 -28 -2 -45 6 -13 14 -21 16 -19 2 2 10 -3 18 -11
12 -13 11 -14 -4 -11 -10 1 -27 15 -38 30 -18 24 -19 31 -7 53 7 14 17 25 22
25 5 0 2 -10 -5 -22z m578 -108 c-3 -5 -12 -10 -18 -10 -7 0 -6 4 3 10 19 12
23 12 15 0z m-35 -19 c0 -5 -7 -12 -16 -15 -14 -5 -15 -4 -4 9 14 17 20 19 20
6z m-2010 -141 c-12 -8 -12 -10 4 -10 18 0 18 -1 1 -20 -10 -11 -15 -20 -11
-20 4 0 0 -8 -10 -17 -16 -16 -16 -18 -2 -21 22 -4 31 -31 17 -48 -6 -8 -8
-14 -4 -14 4 0 2 -7 -5 -15 -15 -18 1 -20 18 -3 9 9 12 7 12 -9 0 -12 3 -29 7
-39 5 -13 3 -15 -8 -9 -12 8 -12 6 0 -8 11 -15 12 -22 1 -41 -7 -13 -20 -23
-29 -21 -9 1 -26 -7 -38 -18 -15 -13 -23 -16 -23 -7 0 7 -11 1 -26 -14 -15
-14 -34 -25 -43 -24 -9 2 -15 -3 -13 -9 3 -17 -6 -16 -24 1 -18 19 -18 26 1
26 15 0 55 76 55 104 0 6 9 30 20 51 11 22 22 49 25 60 12 62 69 155 84 139 3
-3 -1 -9 -9 -14z m1655 -90 c3 -5 -3 -10 -14 -10 -11 0 -23 5 -26 10 -3 6 3
10 14 10 11 0 23 -4 26 -10z m269 -231 c-4 -8 -41 -9 -115 -6 -63 3 -111 2
-114 -4 -9 -14 -25 -11 -25 6 0 13 21 15 131 15 93 0 128 -3 123 -11z m-1589
-17 c66 -6 181 -13 255 -17 174 -7 250 -15 250 -26 0 -5 12 -9 28 -8 15 1 51
-4 81 -10 29 -6 65 -11 80 -11 l26 1 -24 13 c-22 12 -16 13 58 15 50 1 81 -2
81 -9 0 -5 7 -10 15 -10 8 0 15 5 15 11 0 6 8 8 18 5 9 -3 58 -8 107 -11 50
-3 92 -10 93 -15 2 -6 7 -8 12 -5 9 5 59 6 165 2 64 -2 73 -5 103 -35 l33 -33
-17 -39 c-19 -43 -56 -55 -68 -23 -6 15 -7 15 -19 -1 -10 -14 -19 -15 -66 -6
-56 10 -91 6 -91 -11 0 -6 -4 -8 -9 -5 -5 3 -20 -3 -34 -14 -14 -11 -36 -21
-49 -21 -17 -1 -18 -3 -5 -6 9 -2 17 -8 17 -13 0 -12 -26 -19 -49 -13 -20 5
-21 6 -4 20 10 8 13 12 7 9 -7 -3 -24 0 -39 8 -18 10 -45 12 -87 8 -45 -4 -59
-2 -54 6 4 7 31 12 61 12 49 0 77 11 57 24 -4 2 -120 7 -257 11 -138 3 -302
10 -365 14 -63 5 -171 9 -240 10 -133 2 -198 13 -206 36 -3 8 -27 17 -52 21
-42 6 -149 51 -140 58 1 2 48 -3 103 -10 111 -15 296 -18 235 -4 -62 14 -163
29 -235 35 -129 10 -183 27 -153 47 14 10 178 5 363 -10z m1200 8 c17 -7 15
-9 -12 -9 -17 -1 -35 4 -38 9 -7 12 22 12 50 0z m-7204 -71 c13 -6 25 -6 39 1
15 8 37 1 117 -41 54 -29 126 -71 161 -95 35 -24 66 -44 69 -44 3 0 30 -16 59
-35 29 -19 60 -35 68 -35 9 0 16 -3 16 -8 0 -7 37 -25 76 -36 12 -4 30 -16 40
-28 19 -21 19 -21 -1 -14 -16 6 -17 5 -8 -5 7 -7 23 -14 35 -16 18 -2 20 -1 8
7 -12 8 -10 10 11 10 15 0 32 -7 39 -15 10 -13 9 -15 -11 -15 -27 0 -16 -14
20 -25 18 -6 22 -4 15 6 -6 10 -1 9 16 -2 62 -40 256 -136 268 -132 6 3 12 0
12 -6 0 -6 7 -8 15 -5 8 4 13 10 10 14 -3 5 4 6 15 3 11 -3 18 -8 16 -12 -2
-3 9 -7 25 -8 16 -1 29 2 29 7 0 6 5 10 11 10 6 0 8 -7 5 -17 -4 -10 -4 -14 0
-11 3 4 13 0 21 -8 9 -9 31 -14 57 -13 47 3 67 -2 79 -16 6 -7 10 -6 13 1 5
12 39 8 59 -6 6 -3 22 -5 37 -4 15 2 30 -1 33 -6 3 -5 12 -7 20 -4 8 3 39 -2
70 -11 31 -8 60 -13 64 -10 5 3 11 1 13 -4 5 -14 128 -24 128 -10 0 8 4 8 15
-1 8 -6 19 -9 25 -5 5 3 10 -1 10 -9 0 -9 5 -16 10 -16 6 0 10 5 10 10 0 16
24 7 38 -15 10 -14 12 -15 8 -3 -3 11 -1 15 9 12 7 -3 33 -7 57 -9 49 -5 111
-13 148 -21 14 -3 39 -6 56 -8 17 -1 37 -7 45 -12 13 -8 98 -22 174 -29 17 -1
57 -5 90 -9 135 -14 245 -21 490 -30 249 -10 345 -17 340 -26 -3 -5 -15 -7
-28 -4 -33 6 -74 -5 -74 -21 0 -19 24 -26 62 -19 17 4 35 6 40 5 6 -1 21 -3
35 -5 103 -13 128 -20 153 -41 15 -13 27 -30 27 -37 0 -10 -2 -10 -9 0 -7 11
-9 11 -14 -1 -5 -14 -85 -34 -117 -29 -8 1 -31 4 -50 7 -19 3 -55 8 -80 10
-25 2 -71 11 -103 20 -41 11 -112 16 -247 18 -147 2 -192 5 -202 16 -11 12
-11 13 1 6 10 -6 12 -4 7 4 -4 6 -22 11 -39 10 -30 -1 -68 3 -172 15 -114 14
-251 27 -345 31 -58 3 -127 7 -155 10 -27 3 -83 7 -124 10 -41 3 -77 9 -80 14
-7 10 -166 51 -199 51 -12 0 -24 5 -27 10 -4 6 -12 9 -18 8 -7 -1 -27 6 -45
15 -18 10 -32 14 -31 10 6 -36 -10 -39 -101 -17 -14 3 -45 7 -70 8 -25 2 -58
8 -73 14 -16 7 -35 12 -42 12 -14 0 -35 8 -102 36 -17 8 -37 14 -44 14 -7 0
-32 12 -56 26 -25 14 -51 23 -59 20 -8 -3 -22 3 -31 14 -10 11 -25 20 -35 20
-11 0 -18 7 -18 18 0 18 -11 22 -59 22 -19 0 -21 3 -12 14 10 12 8 17 -8 25
-11 6 -27 11 -36 11 -8 0 -26 6 -38 14 -38 24 -67 29 -67 12 0 -9 5 -16 12
-16 6 0 9 -3 6 -6 -9 -9 -49 20 -44 32 7 18 -5 28 -84 69 -41 21 -82 46 -90
55 -22 24 -54 19 -58 -8 -2 -13 -10 -26 -17 -29 -18 -6 -102 46 -110 69 -3 9
-20 21 -37 27 -17 6 -44 26 -60 45 -16 19 -46 40 -66 47 -50 17 -86 45 -119
93 -48 71 -48 76 -1 71 22 -3 49 -10 59 -16z m7524 -190 c4 -6 14 -8 24 -5 12
5 11 2 -3 -9 -11 -8 -17 -15 -13 -15 4 0 3 -9 -3 -21 -15 -28 -39 -8 -38 32 1
29 20 40 33 18z m-167 -42 c12 -6 22 -16 22 -23 0 -16 -113 -10 -118 6 -5 15
-38 12 -52 -5 -14 -17 -32 -11 -24 10 3 7 12 11 20 8 8 -3 14 -1 14 5 0 13
107 12 138 -1z m-6608 -248 c13 -7 13 -8 -2 -9 -9 0 -18 -5 -20 -11 -3 -8 -14
-6 -36 5 -18 9 -30 21 -27 26 6 10 60 3 85 -11z m245 1 c3 -6 -1 -7 -9 -4 -18
7 -21 14 -7 14 6 0 13 -4 16 -10z m-828 -65 c0 -8 -4 -12 -9 -9 -5 3 -6 10 -3
15 9 13 12 11 12 -6z m86 -17 c21 -11 21 -11 2 -18 -25 -9 -45 -2 -45 16 0 17
14 18 43 2z m617 -26 c0 -8 -1 -13 -3 -11 -1 2 -9 12 -16 22 -12 15 -12 17 3
11 9 -3 16 -13 16 -22z m800 4 c0 -6 -8 -12 -19 -13 -14 -1 -17 3 -14 17 5 20
33 17 33 -4z m-1360 4 c0 -5 7 -10 15 -10 8 0 15 -4 15 -10 0 -15 -9 -12 -37
10 -19 15 -21 20 -9 20 9 0 16 -4 16 -10z m86 -48 c-5 -9 4 -15 77 -46 41 -19
51 -31 12 -16 -14 5 -25 7 -25 4 0 -2 -14 3 -31 11 -30 16 -31 16 -25 -3 5
-15 1 -21 -16 -25 -29 -8 -48 9 -48 43 0 23 4 27 20 23 11 -3 20 0 20 6 0 6 5
11 11 11 5 0 8 -4 5 -8z m5191 -101 c10 9 13 8 13 -4 0 -8 6 -18 13 -20 6 -3
0 -6 -15 -6 -14 -1 -32 -3 -40 -4 -7 -2 -10 -2 -7 0 4 2 4 14 2 26 -5 18 -3
20 7 10 10 -9 17 -10 27 -2z m-2221 -84 c4 -4 -2 -7 -14 -7 -11 0 -23 4 -26 8
-6 10 30 9 40 -1z m-3116 -17 c8 -5 11 -12 7 -16 -4 -4 -15 0 -24 9 -18 18 -8
23 17 7z m2370 -60 c12 -8 9 -9 -12 -8 -15 1 -24 6 -22 10 7 10 16 10 34 -2z
m-3665 -260 c3 -5 1 -10 -4 -10 -6 0 -11 5 -11 10 0 6 2 10 4 10 3 0 8 -4 11
-10z m61 -51 c19 -11 31 -25 28 -31 -4 -6 -9 -6 -13 -1 -3 5 -19 19 -35 31
-36 28 -24 29 20 1z m60 -46 c-3 -3 -1 -14 5 -24 13 -24 4 -24 -20 0 -13 13
-16 22 -8 30 5 5 14 8 19 5 5 -3 7 -8 4 -11z m5288 -212 c3 -5 -56 -12 -132
-15 -75 -4 -207 -11 -292 -16 -162 -10 -385 -8 -397 3 -3 4 2 8 13 8 10 1 33
3 49 6 157 20 749 31 759 14z m-1119 -19 c-3 -3 -11 0 -18 7 -9 10 -8 11 6 5
10 -3 15 -9 12 -12z m1540 -76 c-9 -14 -14 -29 -11 -34 3 -5 -1 -18 -9 -28 -8
-10 -15 -28 -15 -39 -1 -20 -1 -20 -15 -1 -8 11 -15 14 -15 8 0 -7 -4 -12 -10
-12 -5 0 -10 10 -10 23 0 13 -5 28 -12 35 -9 9 -7 12 11 12 12 0 20 4 17 9 -3
5 7 14 23 19 17 6 36 20 43 31 7 12 14 17 16 12 2 -6 -4 -21 -13 -35z m-1645
24 c0 -5 -5 -10 -11 -10 -5 0 -7 5 -4 10 3 6 8 10 11 10 2 0 4 -4 4 -10z
m-1491 -354 c21 -11 21 -14 6 -20 -13 -5 -15 -9 -6 -20 16 -19 3 -26 -30 -14
-23 8 -27 13 -19 23 8 10 7 14 -2 18 -10 4 -10 8 2 16 19 13 20 13 49 -3z
m-76 -15 c-3 -9 -10 -21 -15 -28 -6 -7 -1 -19 13 -32 22 -20 22 -21 2 -21 -11
0 -29 8 -41 18 -11 9 -27 22 -36 27 -10 6 -14 18 -10 31 4 17 14 21 49 21 36
1 43 -2 38 -16z m184 -68 c16 -34 2 -45 -38 -31 -30 10 -40 42 -16 51 27 11
43 6 54 -20z m93 7 c0 -5 -7 -10 -15 -10 -8 0 -15 5 -15 10 0 6 7 10 15 10 8
0 15 -4 15 -10z"/>
<path d="M8940 9760 c-12 -7 -12 -11 -2 -20 6 -5 10 -7 7 -4 -3 4 0 13 6 21
13 15 10 16 -11 3z"/>
<path d="M9200 9721 c0 -6 5 -13 10 -16 6 -3 10 1 10 9 0 9 -4 16 -10 16 -5 0
-10 -4 -10 -9z"/>
<path d="M8990 9640 c0 -5 5 -10 11 -10 5 0 7 5 4 10 -3 6 -8 10 -11 10 -2 0
-4 -4 -4 -10z"/>
<path d="M8830 9582 c0 -5 7 -9 15 -9 8 0 15 4 15 9 0 4 -7 8 -15 8 -8 0 -15
-4 -15 -8z"/>
<path d="M9292 9563 c4 -2 5 -10 2 -18 -3 -7 -1 -16 5 -19 6 -4 8 -13 4 -21
-8 -24 25 -18 38 6 8 15 8 19 0 15 -7 -4 -11 1 -11 13 0 12 -4 21 -9 21 -5 0
-15 2 -23 3 -7 2 -10 2 -6 0z"/>
<path d="M9410 9550 c-1 -14 -4 -19 -7 -12 -2 6 -9 12 -15 12 -6 0 -4 -8 5
-18 10 -10 17 -26 17 -35 0 -10 8 -17 18 -17 14 0 14 2 3 9 -8 5 -11 16 -8 25
4 9 2 26 -3 38 -9 23 -9 23 -10 -2z"/>
<path d="M9250 9550 c0 -5 5 -10 10 -10 6 0 10 5 10 10 0 6 -4 10 -10 10 -5 0
-10 -4 -10 -10z"/>
<path d="M9346 9477 c-18 -13 -18 -14 0 -21 10 -4 15 -4 11 0 -4 4 -2 13 4 21
15 17 8 17 -15 0z"/>
<path d="M9167 9429 c7 -7 15 -10 18 -7 3 3 -2 9 -12 12 -14 6 -15 5 -6 -5z"/>
<path d="M9208 9433 c7 -3 16 -2 19 1 4 3 -2 6 -13 5 -11 0 -14 -3 -6 -6z"/>
<path d="M9240 9428 c0 -8 -16 -18 -37 -24 -33 -8 -38 -13 -41 -41 -4 -36 0
-38 29 -23 15 8 23 7 35 -5 19 -18 33 -19 40 -2 2 7 17 13 32 12 25 -1 42 10
42 28 0 4 -6 7 -12 5 -7 -1 -24 4 -38 12 -14 7 -26 13 -27 12 -2 -1 -6 -2 -10
-2 -5 0 -2 4 5 9 10 6 10 10 -3 21 -12 10 -15 10 -15 -2z m-16 -35 c-5 -5 -12
-12 -16 -18 -4 -6 -8 -2 -8 8 0 9 7 17 17 17 9 0 12 -3 7 -7z"/>
<path d="M9354 9429 c-8 -14 14 -29 33 -22 10 4 11 9 2 19 -14 17 -25 18 -35
3z"/>
<path d="M9420 9416 c0 -2 7 -6 15 -10 8 -3 15 -1 15 4 0 6 -7 10 -15 10 -8 0
-15 -2 -15 -4z"/>
<path d="M9610 9390 c0 -5 5 -10 11 -10 5 0 7 5 4 10 -3 6 -8 10 -11 10 -2 0
-4 -4 -4 -10z"/>
<path d="M225 9680 c11 -5 27 -9 35 -9 9 0 8 4 -5 9 -11 5 -27 9 -35 9 -9 0
-8 -4 5 -9z"/>
<path d="M275 9581 c-3 -5 -2 -12 3 -15 5 -3 9 1 9 9 0 17 -3 19 -12 6z"/>
<path d="M372 9478 c6 -15 14 -25 19 -22 6 3 5 11 -2 20 -9 11 -8 14 6 14 23
0 11 13 -14 15 -16 1 -17 -2 -9 -27z"/>
<path d="M286 9395 c4 -8 10 -12 15 -9 11 6 2 24 -11 24 -5 0 -7 -7 -4 -15z"/>
<path d="M373 9362 c-9 -6 -7 -11 6 -19 16 -10 18 -9 14 8 -3 10 -6 19 -7 19
0 0 -6 -4 -13 -8z"/>
<path d="M7303 7633 l-1 -68 9 60 c5 32 5 63 0 68 -4 4 -8 -23 -8 -60z"/>
<path d="M7291 7524 c0 -11 3 -14 6 -6 3 7 2 16 -1 19 -3 4 -6 -2 -5 -13z"/>
<path d="M7303 7400 c0 -30 2 -43 4 -27 2 15 2 39 0 55 -2 15 -4 2 -4 -28z"/>
<path d="M1430 8188 c-22 -24 -26 -38 -10 -38 5 0 16 14 25 30 18 36 13 38
-15 8z"/>
<path d="M4878 7609 c-4 -11 -66 -16 -97 -8 -7 2 -15 -4 -16 -13 -3 -19 17
-21 118 -11 47 5 48 6 31 24 -20 22 -31 24 -36 8z"/>
<path d="M4707 7603 c-10 -9 -9 -23 2 -23 5 0 11 7 15 15 5 15 -5 20 -17 8z"/>
<path d="M5195 7550 c3 -5 8 -10 11 -10 2 0 4 5 4 10 0 6 -5 10 -11 10 -5 0
-7 -4 -4 -10z"/>
<path d="M8530 7493 c-27 -11 -50 -42 -52 -70 -1 -15 -4 -32 -6 -37 -6 -11
-32 50 -32 75 0 28 -17 23 -24 -6 -4 -15 -11 -23 -17 -19 -7 4 -9 -1 -5 -14 4
-11 2 -23 -4 -27 -17 -10 -11 -25 7 -18 12 5 15 2 10 -10 -7 -17 15 -41 28
-29 5 4 5 1 1 -5 -4 -7 -14 -13 -22 -13 -8 0 -12 -5 -9 -11 4 -6 13 -8 20 -5
7 2 23 -3 36 -11 12 -9 19 -12 16 -6 -4 6 -1 14 5 16 10 4 10 6 -1 6 -8 1 -4
8 10 20 18 14 27 16 40 8 36 -23 103 38 77 70 -6 7 -4 13 4 16 10 4 10 7 -1
18 -12 12 -13 12 -6 0 5 -9 4 -12 -3 -7 -9 5 -8 12 0 26 7 11 10 21 7 24 -9
10 -63 16 -79 9z"/>
<path d="M4836 7295 c4 -8 7 -15 9 -15 2 0 5 7 9 15 3 9 0 15 -9 15 -9 0 -12
-6 -9 -15z"/>
<path d="M4900 7291 c0 -6 5 -11 11 -11 5 0 7 -4 4 -10 -8 -12 74 -13 93 -1
11 6 10 10 -5 15 -35 14 -103 19 -103 7z"/>
<path d="M5745 7100 c3 -5 10 -10 16 -10 5 0 9 5 9 10 0 6 -7 10 -16 10 -8 0
-12 -4 -9 -10z"/>
<path d="M5645 7031 c-3 -5 -2 -12 3 -15 5 -3 9 1 9 9 0 17 -3 19 -12 6z"/>
<path d="M5856 6997 c3 -10 9 -15 12 -12 3 3 0 11 -7 18 -10 9 -11 8 -5 -6z"/>
<path d="M5620 6959 c6 -19 10 -35 10 -36 0 -1 12 0 28 2 17 2 26 8 23 16 -2
8 -3 22 -3 32 0 10 -4 16 -11 14 -7 -3 -11 -10 -9 -16 3 -16 -8 -14 -29 5 -17
16 -18 15 -9 -17z"/>
<path d="M5857 6950 c3 -11 9 -20 14 -20 5 0 9 9 9 20 0 11 -6 20 -14 20 -9 0
-12 -7 -9 -20z"/>
<path d="M6100 6655 c0 -9 5 -15 11 -13 6 2 11 8 11 13 0 5 -5 11 -11 13 -6 2
-11 -4 -11 -13z"/>
<path d="M3056 6647 c3 -10 9 -15 12 -12 3 3 0 11 -7 18 -10 9 -11 8 -5 -6z"/>
<path d="M3027 6613 c-12 -12 -7 -22 8 -17 8 4 15 10 15 15 0 11 -14 12 -23 2z"/>
<path d="M2844 6428 l-19 -23 23 19 c21 18 27 26 19 26 -2 0 -12 -10 -23 -22z"/>
<path d="M2480 6084 c0 -8 0 -17 -1 -21 0 -4 5 -9 12 -12 8 -2 10 2 6 13 -4
11 -1 16 10 16 19 0 9 13 -12 16 -8 1 -15 -4 -15 -12z"/>
<path d="M2380 5788 c-11 -12 -17 -24 -14 -27 4 -3 9 0 11 7 6 16 43 15 67 -3
37 -28 41 -15 6 15 -42 36 -44 36 -70 8z"/>
<path d="M2537 4873 c-4 -3 -7 -11 -7 -17 0 -6 5 -5 12 2 6 6 9 14 7 17 -3 3
-9 2 -12 -2z"/>
<path d="M2050 4541 c0 -10 21 -18 67 -24 11 -2 28 -8 36 -15 11 -10 17 -9 27
3 7 8 22 15 33 15 13 0 17 4 12 9 -15 15 -175 26 -175 12z"/>
<path d="M2396 4188 c3 -10 2 -18 -3 -18 -4 0 -8 -16 -9 -35 0 -21 4 -34 10
-32 6 2 11 15 11 28 0 13 5 27 10 31 6 5 3 14 -8 25 -17 17 -18 17 -11 1z"/>
<path d="M2040 3599 c0 -5 5 -7 10 -4 6 3 10 8 10 11 0 2 -4 4 -10 4 -5 0 -10
-5 -10 -11z"/>
<path d="M2490 6464 c-33 -29 -96 -114 -83 -114 8 0 76 69 117 118 26 30 5 28
-34 -4z"/>
<path d="M1706 5028 c3 -5 10 -6 15 -3 13 9 11 12 -6 12 -8 0 -12 -4 -9 -9z"/>
<path d="M7524 5931 c19 -7 19 -8 -2 -13 -12 -4 -22 -12 -22 -18 0 -8 8 -10
22 -7 15 4 29 -1 45 -19 28 -31 31 -16 3 19 -11 14 -20 30 -20 36 0 6 -10 11
-22 10 -21 0 -22 -1 -4 -8z"/>
<path d="M7640 5861 c0 -6 5 -13 10 -16 6 -3 10 1 10 9 0 9 -4 16 -10 16 -5 0
-10 -4 -10 -9z"/>
<path d="M7715 5603 c6 -15 35 -140 35 -151 0 -2 4 -1 9 2 9 6 6 32 -6 66 -6
17 -13 56 -14 83 0 9 -7 17 -16 17 -10 0 -13 -5 -8 -17z"/>
<path d="M7550 5499 c0 -5 5 -7 10 -4 6 3 10 8 10 11 0 2 -4 4 -10 4 -5 0 -10
-5 -10 -11z"/>
<path d="M7574 5453 c-1 -13 1 -21 5 -16 3 4 10 10 14 14 4 3 2 11 -5 17 -10
8 -13 5 -14 -15z"/>
<path d="M7630 5245 c7 -9 15 -13 17 -11 7 7 -7 26 -19 26 -6 0 -6 -6 2 -15z"/>
<path d="M7740 4685 c0 -8 4 -15 10 -15 5 0 7 7 4 15 -4 8 -8 15 -10 15 -2 0
-4 -7 -4 -15z"/>
<path d="M7728 4265 c-4 -4 -4 -13 -1 -21 3 -8 0 -14 -7 -14 -6 0 -8 -5 -4
-11 10 -17 26 5 22 31 -1 12 -6 19 -10 15z"/>
<path d="M5211 6381 c-8 -5 -9 -11 -3 -15 5 -3 15 1 22 9 14 16 3 20 -19 6z"/>
<path d="M4700 5906 c0 -2 7 -7 16 -10 8 -3 12 -2 9 4 -6 10 -25 14 -25 6z"/>
<path d="M3400 4831 c0 -6 4 -13 10 -16 6 -3 7 1 4 9 -7 18 -14 21 -14 7z"/>
<path d="M8225 3150 c-29 -8 -29 -8 7 -7 20 1 34 5 32 9 -3 4 -6 7 -7 7 -1 -1
-15 -5 -32 -9z"/>
<path d="M8055 3090 c3 -5 8 -10 11 -10 2 0 4 5 4 10 0 6 -5 10 -11 10 -5 0
-7 -4 -4 -10z"/>
<path d="M8801 3021 c-21 -14 4 -23 44 -15 19 3 32 10 29 15 -7 11 -55 11 -73
0z"/>
<path d="M1938 3073 c6 -2 10 -9 6 -14 -3 -5 2 -9 12 -9 13 0 14 3 4 15 -7 8
-18 15 -24 14 -7 0 -6 -2 2 -6z"/>
<path d="M2126 2955 c3 -16 11 -33 17 -37 18 -11 21 0 5 19 -9 10 -18 25 -22
33 -3 8 -3 2 0 -15z"/>
<path d="M2895 2610 c3 -5 10 -10 16 -10 5 0 9 5 9 10 0 6 -7 10 -16 10 -8 0
-12 -4 -9 -10z"/>
<path d="M2936 2612 c-2 -4 4 -13 14 -20 11 -7 21 -8 25 -2 3 5 -3 14 -14 20
-11 5 -22 6 -25 2z"/>
<path d="M9536 10219 c-11 -10 -31 -19 -46 -19 -14 0 -30 -4 -35 -9 -12 -12
-132 -17 -162 -7 -18 6 -22 4 -17 -8 3 -9 17 -19 30 -22 13 -4 29 -14 35 -23
8 -14 9 -13 5 4 -5 17 -1 20 26 19 22 -1 34 -8 44 -27 10 -18 21 -25 38 -23
14 2 24 0 23 -3 -2 -7 7 -11 23 -11 16 0 12 30 -5 36 -8 4 -15 13 -15 21 0 11
4 13 13 6 6 -5 46 -10 87 -12 167 -5 228 -18 348 -78 61 -31 112 -60 112 -64
0 -5 10 -9 23 -9 27 0 51 -15 44 -26 -3 -5 8 -10 24 -11 15 -1 46 -11 69 -23
l40 -20 0 165 0 165 -342 -1 c-326 0 -344 -1 -362 -20z m-81 -79 c3 -5 -1 -10
-9 -10 -9 0 -16 5 -16 10 0 6 4 10 9 10 6 0 13 -4 16 -10z"/>
<path d="M8215 10171 c-8 -20 -3 -22 36 -11 18 6 49 10 66 10 18 0 33 3 33 8
0 4 -29 7 -65 7 -47 1 -66 -3 -70 -14z"/>
<path d="M9690 10033 c0 -17 20 -27 32 -15 6 6 6 12 -1 16 -6 4 -11 1 -11 -6
0 -9 -3 -9 -10 2 -6 9 -10 10 -10 3z"/>
<path d="M9750 10025 c0 -8 9 -13 20 -12 11 1 20 4 20 8 0 4 -9 9 -20 12 -13
3 -20 0 -20 -8z"/>
<path d="M8768 9999 c-6 -4 -17 -5 -24 -2 -29 11 -19 -13 12 -28 18 -9 31 -12
28 -8 -3 5 3 9 13 9 15 0 16 2 3 10 -12 8 -10 10 8 10 13 0 20 -4 17 -10 -3
-5 -2 -10 3 -10 6 0 12 6 15 14 4 10 -4 15 -29 18 -19 2 -39 1 -46 -3z"/>
<path d="M8876 9992 c-3 -5 1 -9 9 -9 8 0 15 4 15 9 0 4 -4 8 -9 8 -6 0 -12
-4 -15 -8z"/>
<path d="M8918 9993 c6 -2 18 -2 25 0 6 3 1 5 -13 5 -14 0 -19 -2 -12 -5z"/>
<path d="M8965 9991 c10 -9 55 -9 61 0 3 6 -9 9 -30 7 -19 -1 -33 -4 -31 -7z"/>
<path d="M9887 9993 c-11 -10 -8 -20 7 -26 8 -3 13 0 12 8 -3 19 -11 27 -19
18z"/>
<path d="M8915 9970 c4 -6 11 -8 16 -5 14 9 11 15 -7 15 -8 0 -12 -5 -9 -10z"/>
<path d="M7340 9326 c0 -20 2 -36 4 -36 8 0 12 61 4 66 -4 3 -8 -11 -8 -30z"/>
<path d="M7391 9044 c0 -11 3 -14 6 -6 3 7 2 16 -1 19 -3 4 -6 -2 -5 -13z"/>
<path d="M521 5520 c-11 -6 -9 -10 8 -19 17 -10 21 -9 21 3 0 20 -13 27 -29
16z"/>
<path d="M991 4471 c-6 -11 -7 -22 -2 -25 5 -3 11 4 14 16 8 30 1 35 -12 9z"/>
<path d="M10223 3633 c-7 -16 -22 -50 -34 -78 -61 -140 -216 -300 -309 -320
-19 -4 -39 -10 -45 -14 -5 -3 -26 -12 -45 -18 -30 -11 -22 -12 65 -7 l100 6
-20 -24 c-36 -42 -48 -69 -35 -82 8 -8 20 -6 45 9 19 11 34 23 32 26 -1 4 5
15 14 25 9 11 19 27 22 37 4 10 11 16 16 13 5 -3 12 5 15 19 4 14 11 25 16 25
6 0 10 6 10 13 0 22 73 95 103 102 20 5 33 2 47 -10 20 -18 20 -16 20 143 0
89 -1 162 -3 162 -1 0 -8 -12 -14 -27z"/>
<path d="M1170 3601 c0 -6 5 -11 10 -11 7 0 7 -6 0 -20 -6 -11 -7 -20 -2 -20
16 0 21 39 6 51 -10 8 -14 8 -14 0z"/>
<path d="M1145 3540 c3 -5 8 -10 11 -10 2 0 4 5 4 10 0 6 -5 10 -11 10 -5 0
-7 -4 -4 -10z"/>
<path d="M1176 3482 c-7 -12 5 -52 16 -52 5 0 5 7 0 18 -5 9 -7 23 -5 30 5 13
-3 17 -11 4z"/>
<path d="M1140 3455 c0 -8 2 -15 4 -15 2 0 6 7 10 15 3 8 1 15 -4 15 -6 0 -10
-7 -10 -15z"/>
<path d="M1247 3364 c3 -7 9 -14 15 -14 5 0 6 -5 2 -12 -4 -7 -3 -8 4 -4 14 8
5 33 -13 40 -9 3 -12 0 -8 -10z"/>
<path d="M10086 3194 c-23 -23 -20 -30 4 -9 11 10 20 20 20 22 0 7 -9 2 -24
-13z"/>
<path d="M1706 2527 c3 -10 9 -15 12 -12 3 3 0 11 -7 18 -10 9 -11 8 -5 -6z"/>
<path d="M6909 2368 c-7 -25 -5 -36 6 -31 8 2 11 11 8 19 -5 12 -12 18 -14 12z"/>
<path d="M2507 2340 c10 -11 24 -20 33 -20 10 0 7 7 -10 20 -32 25 -44 25 -23
0z"/>
<path d="M6875 2320 c3 -5 11 -10 16 -10 6 0 7 5 4 10 -3 6 -11 10 -16 10 -6
0 -7 -4 -4 -10z"/>
<path d="M6958 2323 c7 -3 16 -2 19 1 4 3 -2 6 -13 5 -11 0 -14 -3 -6 -6z"/>
<path d="M6780 2230 c0 -5 9 -10 20 -10 11 0 20 5 20 10 0 6 -9 10 -20 10 -11
0 -20 -4 -20 -10z"/>
<path d="M6506 2203 c-6 -14 -5 -15 5 -6 7 7 10 15 7 18 -3 3 -9 -2 -12 -12z"/>
<path d="M3420 2130 c0 -5 5 -10 11 -10 5 0 7 5 4 10 -3 6 -8 10 -11 10 -2 0
-4 -4 -4 -10z"/>
<path d="M2470 2111 c0 -7 -5 -9 -12 -5 -7 5 -8 3 -3 -5 5 -9 10 -10 18 -2 6
6 8 14 4 18 -4 3 -7 1 -7 -6z"/>
<path d="M3470 2110 c0 -5 5 -10 11 -10 5 0 7 5 4 10 -3 6 -8 10 -11 10 -2 0
-4 -4 -4 -10z"/>
<path d="M9040 1989 c0 -5 5 -7 10 -4 6 3 10 8 10 11 0 2 -4 4 -10 4 -5 0 -10
-5 -10 -11z"/>
<path d="M1230 1801 c0 -5 7 -12 16 -15 14 -5 15 -4 4 9 -14 17 -20 19 -20 6z"/>
<path d="M1270 1760 c0 -5 5 -10 11 -10 6 0 37 -20 69 -45 32 -25 68 -45 79
-45 11 0 22 -4 25 -9 3 -5 20 -14 38 -20 53 -19 -3 21 -92 66 -19 10 -37 20
-40 23 -3 3 -19 16 -37 28 -33 24 -53 28 -53 12z"/>
<path d="M1544 1606 c11 -9 24 -16 30 -16 12 0 7 5 -24 19 -24 11 -24 11 -6
-3z"/>
<path d="M1832 1524 c9 -9 21 -13 27 -9 16 10 3 25 -22 25 -20 0 -20 -1 -5
-16z"/>
</g>
</svg>
